<svg width="1562" height="193" viewBox="0 0 1562 193" fill="none" xmlns="http://www.w3.org/2000/svg">
<mask id="path-1-outside-1" maskUnits="userSpaceOnUse" x="0.869141" y="0" width="1561" height="110" fill="black">
<rect fill="white" x="0.869141" width="1561" height="110"/>
<path d="M89.4291 7.35344C90.5119 7.35344 91.4142 7.75947 92.136 8.57154C92.9481 9.29338 93.3541 10.2408 93.3541 11.4138V98.0341C93.3541 99.2071 92.9481 100.2 92.136 101.012C91.324 101.734 90.3314 102.094 89.1584 102.094C87.8952 102.094 86.8576 101.734 86.0455 101.012C85.2335 100.2 84.8274 99.2071 84.8274 98.0341V23.5948L53.0215 71.7773C52.1192 72.9503 51.0816 73.4917 49.9086 73.4014H49.6379C48.5552 73.4014 47.5627 72.8601 46.6604 71.7773L14.8545 23.3241V98.0341C14.8545 99.2071 14.4484 100.2 13.6364 101.012C12.9145 101.734 11.9671 102.094 10.7941 102.094C9.62114 102.094 8.67373 101.734 7.9519 101.012C7.23006 100.2 6.86914 99.2071 6.86914 98.0341V11.4138C6.86914 10.331 7.23006 9.38361 7.9519 8.57154C8.76396 7.75947 9.75649 7.35344 10.9295 7.35344C11.5611 7.35344 12.2378 7.5339 12.9596 7.89482C13.6815 8.16551 14.2228 8.57154 14.5838 9.11292L50.044 62.3032L85.7748 9.11292C86.7674 7.75948 87.9855 7.17298 89.4291 7.35344Z"/>
<path d="M196.642 7.35344C197.815 7.35344 198.762 7.75947 199.484 8.57154C200.296 9.29338 200.702 10.2408 200.702 11.4138V67.4463C200.702 74.033 199.123 80.0784 195.965 85.5824C192.807 91.0864 188.521 95.4174 183.107 98.5755C177.694 101.734 171.739 103.313 165.242 103.313C158.655 103.313 152.655 101.734 147.241 98.5755C141.827 95.4174 137.542 91.0864 134.384 85.5824C131.225 80.0784 129.646 74.033 129.646 67.4463V11.4138C129.646 10.2408 130.007 9.29338 130.729 8.57154C131.541 7.75947 132.624 7.35344 133.977 7.35344C135.06 7.35344 136.008 7.75947 136.82 8.57154C137.632 9.29338 138.038 10.2408 138.038 11.4138V67.4463C138.038 72.4991 139.256 77.146 141.692 81.3868C144.128 85.6275 147.422 89.0112 151.572 91.5376C155.813 93.9738 160.37 95.1919 165.242 95.1919C170.205 95.1919 174.761 93.9738 178.912 91.5376C183.153 89.0112 186.491 85.6275 188.927 81.3868C191.454 77.146 192.717 72.4991 192.717 67.4463V11.4138C192.717 10.2408 193.078 9.29338 193.8 8.57154C194.522 7.75947 195.469 7.35344 196.642 7.35344Z"/>
<path d="M261.218 103.448C254.721 103.448 248.947 102.365 243.894 100.2C238.931 98.0341 234.104 94.6505 229.412 90.0488C228.329 89.1465 227.788 88.0637 227.788 86.8005C227.788 85.7178 228.194 84.7253 229.006 83.823C229.908 82.9207 230.901 82.4695 231.984 82.4695C233.066 82.4695 234.059 82.9207 234.961 83.823C241.999 91.5827 250.797 95.4626 261.353 95.4626C267.85 95.4626 273.219 93.9287 277.459 90.8609C281.79 87.7931 283.956 83.7778 283.956 78.8152C283.956 74.9353 282.873 71.7322 280.708 69.2058C278.632 66.5891 275.88 64.4687 272.452 62.8446C269.023 61.2205 264.647 59.5512 259.323 57.8369C253.549 56.1225 248.676 54.2277 244.706 52.1524C240.826 50.0771 237.668 47.3251 235.232 43.8964C232.796 40.3774 231.578 35.9562 231.578 30.6327C231.578 25.8505 232.841 21.6097 235.367 17.9103C237.984 14.2109 241.593 11.3235 246.195 9.24826C250.887 7.08275 256.255 6 262.301 6C267.805 6 272.948 6.94741 277.73 8.84223C282.602 10.6468 286.482 13.2635 289.37 16.6922C290.723 18.2261 291.4 19.5344 291.4 20.6172C291.4 21.6097 290.949 22.5571 290.046 23.4594C289.144 24.2715 288.152 24.6775 287.069 24.6775C286.166 24.6775 285.4 24.3617 284.768 23.7301C282.332 20.8428 279.083 18.4968 275.023 16.6922C270.963 14.8876 266.722 13.9853 262.301 13.9853C255.714 13.9853 250.345 15.4741 246.195 18.4517C242.044 21.339 239.969 25.3091 239.969 30.362C239.969 35.5953 241.954 39.6105 245.924 42.4076C249.894 45.2047 255.579 47.7763 262.977 50.1222C269.384 52.0171 274.617 53.957 278.677 55.942C282.738 57.9271 286.031 60.7693 288.558 64.4687C291.174 68.0779 292.483 72.8601 292.483 78.8152C292.483 83.4169 291.129 87.6126 288.422 91.4022C285.806 95.1016 282.106 98.0341 277.324 100.2C272.632 102.365 267.263 103.448 261.218 103.448Z"/>
<path d="M330.991 97.8988C330.901 99.0717 330.45 100.064 329.638 100.876C328.826 101.688 327.833 102.094 326.66 102.094C325.397 102.094 324.359 101.734 323.547 101.012C322.825 100.2 322.464 99.162 322.464 97.8988V11.5491C322.464 10.2859 322.87 9.29338 323.683 8.57154C324.495 7.75947 325.532 7.35344 326.795 7.35344C327.968 7.35344 328.961 7.75947 329.773 8.57154C330.585 9.38361 330.991 10.3761 330.991 11.5491V97.8988Z"/>
<path d="M436.289 14.3913C437.642 15.2034 438.319 16.3313 438.319 17.775C438.319 18.587 438.003 19.4893 437.372 20.4818C436.56 21.4744 435.522 21.9706 434.259 21.9706C433.537 21.9706 432.815 21.7451 432.093 21.2939C424.875 16.5117 416.98 14.1207 408.408 14.1207C401.1 14.1207 394.468 15.835 388.512 19.2637C382.648 22.6925 378.001 27.5197 374.572 33.7456C371.234 39.8812 369.564 46.874 369.564 54.7239C369.564 62.7544 371.279 69.8825 374.707 76.1083C378.136 82.2439 382.783 87.0261 388.648 90.4548C394.603 93.7933 401.19 95.4626 408.408 95.4626C416.98 95.4626 424.83 93.1166 431.958 88.4247C432.68 87.9735 433.447 87.7479 434.259 87.7479C435.522 87.7479 436.56 88.2893 437.372 89.3721C438.003 90.0939 438.319 90.9511 438.319 91.9436C438.319 93.3873 437.688 94.47 436.424 95.1919C432.905 97.5378 428.574 99.5229 423.431 101.147C418.288 102.681 413.281 103.448 408.408 103.448C399.836 103.448 391.896 101.418 384.587 97.3574C377.369 93.2068 371.594 87.4321 367.263 80.0333C363.023 72.6345 360.902 64.198 360.902 54.7239C360.902 45.6108 363.023 37.3548 367.263 29.9559C371.504 22.4669 377.234 16.6471 384.452 12.4965C391.671 8.25574 399.656 6.13534 408.408 6.13534C413.461 6.13534 418.378 6.85718 423.161 8.30086C428.033 9.74452 432.409 11.7747 436.289 14.3913Z"/>
<path d="M537.029 96.6807C537.209 97.4025 537.299 97.9439 537.299 98.3048C537.299 99.4778 536.893 100.425 536.081 101.147C535.269 101.869 534.322 102.23 533.239 102.23C532.337 102.23 531.524 102.004 530.803 101.553C530.171 101.012 529.675 100.335 529.314 99.5229L519.163 74.7549H475.176L465.161 99.5229C464.439 101.327 463.221 102.23 461.506 102.23C460.243 102.23 459.296 101.914 458.664 101.282C458.033 100.651 457.672 99.7936 457.581 98.7108V98.3048C457.581 97.7634 457.627 97.3574 457.717 97.0867L493.448 9.6543C494.169 7.84971 495.523 6.94741 497.508 6.94741C498.41 6.94741 499.177 7.2181 499.809 7.75948C500.531 8.21062 501.072 8.84223 501.433 9.6543L537.029 96.6807ZM515.915 66.7696L496.967 20.4818L478.289 66.7696H515.915Z"/>
<path d="M617.215 94.1091C618.388 94.1091 619.335 94.47 620.057 95.1919C620.869 95.9137 621.275 96.8611 621.275 98.0341C621.275 99.2071 620.869 100.2 620.057 101.012C619.335 101.734 618.388 102.094 617.215 102.094H568.897C567.724 102.094 566.731 101.734 565.919 101.012C565.197 100.2 564.836 99.2071 564.836 98.0341V11.4138C564.836 10.2408 565.242 9.29338 566.055 8.57154C566.867 7.75947 567.904 7.35344 569.167 7.35344C570.34 7.35344 571.333 7.75947 572.145 8.57154C572.957 9.29338 573.363 10.2408 573.363 11.4138V94.1091H617.215Z"/>
<path d="M749.265 94.1091C750.438 94.1091 751.386 94.5151 752.107 95.3272C752.919 96.1393 753.326 97.0867 753.326 98.1695C753.326 99.3424 752.919 100.29 752.107 101.012C751.386 101.734 750.438 102.094 749.265 102.094H699.594C698.421 102.094 697.428 101.734 696.616 101.012C695.894 100.2 695.534 99.2071 695.534 98.0341V11.4138C695.534 10.2408 695.894 9.29338 696.616 8.57154C697.428 7.75947 698.421 7.35344 699.594 7.35344H749.265C750.438 7.35344 751.386 7.75947 752.107 8.57154C752.919 9.29338 753.326 10.2408 753.326 11.4138C753.326 12.5868 752.919 13.5342 752.107 14.256C751.386 14.9778 750.438 15.3388 749.265 15.3388H704.06V49.3102H743.175C744.348 49.3102 745.295 49.7162 746.017 50.5283C746.829 51.2501 747.235 52.1975 747.235 53.3705C747.235 54.5435 746.829 55.4909 746.017 56.2127C745.295 56.9346 744.348 57.2955 743.175 57.2955H704.06V94.1091H749.265Z"/>
<path d="M847.032 96.0039C847.664 96.9062 847.98 97.7183 847.98 98.4401C847.98 99.7033 847.529 100.741 846.626 101.553C845.814 102.275 844.867 102.636 843.784 102.636C842.431 102.636 841.348 102.049 840.536 100.876L811.302 61.2205L782.202 100.741C781.39 102.004 780.308 102.636 778.954 102.636C777.872 102.636 776.969 102.275 776.247 101.553C775.616 100.741 775.3 99.8838 775.3 98.9815C775.3 98.0792 775.616 97.1769 776.247 96.2746L806.7 54.8593L776.112 13.4439C775.48 12.7221 775.165 11.91 775.165 11.0077C775.165 9.92498 775.571 8.97757 776.383 8.16551C777.285 7.35345 778.278 6.94741 779.36 6.94741C780.714 6.94741 781.842 7.48879 782.744 8.57154L811.843 48.2274L840.807 8.70688C841.799 7.5339 842.882 6.94741 844.055 6.94741C845.138 6.94741 846.04 7.30833 846.762 8.03016C847.574 8.66177 847.98 9.47384 847.98 10.4664C847.98 11.1882 847.664 12.0454 847.032 13.0379L816.58 54.5886L847.032 96.0039Z"/>
<path d="M912.329 7.35344C917.291 7.35344 921.758 8.52643 925.728 10.8724C929.698 13.1281 932.766 16.3313 934.931 20.4818C937.187 24.5422 938.315 29.1439 938.315 34.2869C938.315 39.43 937.187 44.122 934.931 48.3628C932.766 52.6035 929.698 55.942 925.728 58.3782C921.758 60.8144 917.291 62.0325 912.329 62.0325H884.312V98.0341C884.312 99.2071 883.906 100.2 883.094 101.012C882.372 101.734 881.425 102.094 880.252 102.094C879.079 102.094 878.086 101.734 877.274 101.012C876.553 100.2 876.192 99.2071 876.192 98.0341V11.4138C876.192 10.2408 876.553 9.29338 877.274 8.57154C878.086 7.75947 879.079 7.35344 880.252 7.35344H912.329ZM912.329 54.1826C917.562 54.1826 921.803 52.2877 925.051 48.4981C928.299 44.7085 929.923 39.9714 929.923 34.2869C929.923 28.6927 928.299 24.1361 925.051 20.6172C921.803 17.0982 917.562 15.3388 912.329 15.3388H884.312V54.1826H912.329Z"/>
<path d="M1021.38 94.1091C1022.55 94.1091 1023.5 94.5151 1024.22 95.3272C1025.03 96.1393 1025.44 97.0867 1025.44 98.1695C1025.44 99.3424 1025.03 100.29 1024.22 101.012C1023.5 101.734 1022.55 102.094 1021.38 102.094H971.705C970.532 102.094 969.539 101.734 968.727 101.012C968.005 100.2 967.644 99.2071 967.644 98.0341V11.4138C967.644 10.2408 968.005 9.29338 968.727 8.57154C969.539 7.75947 970.532 7.35344 971.705 7.35344H1021.38C1022.55 7.35344 1023.5 7.75947 1024.22 8.57154C1025.03 9.29338 1025.44 10.2408 1025.44 11.4138C1025.44 12.5868 1025.03 13.5342 1024.22 14.256C1023.5 14.9778 1022.55 15.3388 1021.38 15.3388H976.171V49.3102H1015.29C1016.46 49.3102 1017.41 49.7162 1018.13 50.5283C1018.94 51.2501 1019.35 52.1975 1019.35 53.3705C1019.35 54.5435 1018.94 55.4909 1018.13 56.2127C1017.41 56.9346 1016.46 57.2955 1015.29 57.2955H976.171V94.1091H1021.38Z"/>
<path d="M1124.56 94.7858C1125.91 95.6881 1126.59 96.816 1126.59 98.1695C1126.59 98.6206 1126.41 99.2071 1126.05 99.9289C1125.68 100.561 1125.19 101.057 1124.56 101.418C1123.93 101.779 1123.25 101.959 1122.53 101.959C1121.62 101.959 1120.86 101.779 1120.23 101.418C1117.7 99.974 1115.67 97.6281 1114.14 94.3798C1112.6 91.1315 1111.83 85.9433 1111.83 78.8152C1111.83 72.4991 1110.08 68.0779 1106.56 65.5515C1103.04 62.9348 1098.84 61.6265 1093.97 61.6265H1063.92V98.0341C1063.92 99.2071 1063.56 100.2 1062.84 101.012C1062.12 101.734 1061.17 102.094 1060 102.094C1058.73 102.094 1057.65 101.734 1056.75 101.012C1055.85 100.2 1055.4 99.2071 1055.4 98.0341V11.4138C1055.4 10.2408 1055.76 9.29338 1056.48 8.57154C1057.29 7.75947 1058.28 7.35344 1059.46 7.35344H1096C1101.14 7.35344 1105.74 8.48131 1109.8 10.7371C1113.86 12.9026 1117.02 15.9252 1119.28 19.8051C1121.62 23.685 1122.8 28.0611 1122.8 32.9335C1122.8 38.7082 1121.26 43.8062 1118.2 48.2274C1115.22 52.5584 1111.29 55.536 1106.42 57.1601C1110.39 58.694 1113.64 61.3107 1116.17 65.0101C1118.69 68.6193 1120 73.0405 1120.09 78.2738C1120.18 83.8681 1120.54 87.7931 1121.17 90.0488C1121.9 92.3045 1123.02 93.8835 1124.56 94.7858ZM1096.41 54.1826C1099.56 53.9119 1102.5 52.8742 1105.2 51.0696C1107.91 49.2651 1110.08 46.8289 1111.7 43.761C1113.32 40.6932 1114.14 37.1743 1114.14 33.2042C1114.14 28.0611 1112.38 23.8203 1108.86 20.4818C1105.43 17.0531 1100.92 15.3388 1095.32 15.3388H1063.92V54.1826H1096.41Z"/>
<path d="M1165.42 97.8988C1165.33 99.0717 1164.88 100.064 1164.07 100.876C1163.25 101.688 1162.26 102.094 1161.09 102.094C1159.83 102.094 1158.79 101.734 1157.98 101.012C1157.25 100.2 1156.89 99.162 1156.89 97.8988V11.5491C1156.89 10.2859 1157.3 9.29338 1158.11 8.57154C1158.92 7.75947 1159.96 7.35344 1161.22 7.35344C1162.4 7.35344 1163.39 7.75947 1164.2 8.57154C1165.01 9.38361 1165.42 10.3761 1165.42 11.5491V97.8988Z"/>
<path d="M1255.29 94.1091C1256.46 94.1091 1257.41 94.5151 1258.13 95.3272C1258.94 96.1393 1259.35 97.0867 1259.35 98.1695C1259.35 99.3424 1258.94 100.29 1258.13 101.012C1257.41 101.734 1256.46 102.094 1255.29 102.094H1205.62C1204.44 102.094 1203.45 101.734 1202.64 101.012C1201.92 100.2 1201.56 99.2071 1201.56 98.0341V11.4138C1201.56 10.2408 1201.92 9.29338 1202.64 8.57154C1203.45 7.75947 1204.44 7.35344 1205.62 7.35344H1255.29C1256.46 7.35344 1257.41 7.75947 1258.13 8.57154C1258.94 9.29338 1259.35 10.2408 1259.35 11.4138C1259.35 12.5868 1258.94 13.5342 1258.13 14.256C1257.41 14.9778 1256.46 15.3388 1255.29 15.3388H1210.08V49.3102H1249.2C1250.37 49.3102 1251.32 49.7162 1252.04 50.5283C1252.85 51.2501 1253.26 52.1975 1253.26 53.3705C1253.26 54.5435 1252.85 55.4909 1252.04 56.2127C1251.32 56.9346 1250.37 57.2955 1249.2 57.2955H1210.08V94.1091H1255.29Z"/>
<path d="M1358.61 7.35344C1359.78 7.35344 1360.68 7.71436 1361.31 8.4362C1362.03 9.15804 1362.39 10.0603 1362.39 11.1431V97.7634C1362.39 99.1169 1361.99 100.2 1361.18 101.012C1360.36 101.734 1359.37 102.094 1358.2 102.094C1357.57 102.094 1356.94 101.959 1356.3 101.688C1355.76 101.418 1355.31 101.102 1354.95 100.741L1296.89 22.512V98.4401C1296.89 99.4327 1296.48 100.29 1295.67 101.012C1294.95 101.734 1294.09 102.094 1293.1 102.094C1292.02 102.094 1291.11 101.734 1290.39 101.012C1289.67 100.29 1289.31 99.4327 1289.31 98.4401V11.4138C1289.31 10.1506 1289.67 9.15804 1290.39 8.4362C1291.2 7.71436 1292.15 7.35344 1293.23 7.35344C1294.68 7.35344 1295.76 7.84971 1296.48 8.84223L1354.82 87.4772V11.1431C1354.82 10.0603 1355.18 9.15804 1355.9 8.4362C1356.62 7.71436 1357.52 7.35344 1358.61 7.35344Z"/>
<path d="M1467.77 14.3913C1469.12 15.2034 1469.8 16.3313 1469.8 17.775C1469.8 18.587 1469.48 19.4893 1468.85 20.4818C1468.04 21.4744 1467 21.9706 1465.74 21.9706C1465.01 21.9706 1464.29 21.7451 1463.57 21.2939C1456.35 16.5117 1448.46 14.1207 1439.88 14.1207C1432.58 14.1207 1425.94 15.835 1419.99 19.2637C1414.12 22.6925 1409.48 27.5197 1406.05 33.7456C1402.71 39.8812 1401.04 46.874 1401.04 54.7239C1401.04 62.7544 1402.76 69.8825 1406.18 76.1083C1409.61 82.2439 1414.26 87.0261 1420.12 90.4548C1426.08 93.7933 1432.67 95.4626 1439.88 95.4626C1448.46 95.4626 1456.31 93.1166 1463.43 88.4247C1464.16 87.9735 1464.92 87.7479 1465.74 87.7479C1467 87.7479 1468.04 88.2893 1468.85 89.3721C1469.48 90.0939 1469.8 90.9511 1469.8 91.9436C1469.8 93.3873 1469.16 94.47 1467.9 95.1919C1464.38 97.5378 1460.05 99.5229 1454.91 101.147C1449.76 102.681 1444.76 103.448 1439.88 103.448C1431.31 103.448 1423.37 101.418 1416.06 97.3574C1408.85 93.2068 1403.07 87.4321 1398.74 80.0333C1394.5 72.6345 1392.38 64.198 1392.38 54.7239C1392.38 45.6108 1394.5 37.3548 1398.74 29.9559C1402.98 22.4669 1408.71 16.6471 1415.93 12.4965C1423.15 8.25574 1431.13 6.13534 1439.88 6.13534C1444.94 6.13534 1449.85 6.85718 1454.64 8.30086C1459.51 9.74452 1463.89 11.7747 1467.77 14.3913Z"/>
<path d="M1551.59 94.1091C1552.76 94.1091 1553.71 94.5151 1554.43 95.3272C1555.24 96.1393 1555.65 97.0867 1555.65 98.1695C1555.65 99.3424 1555.24 100.29 1554.43 101.012C1553.71 101.734 1552.76 102.094 1551.59 102.094H1501.92C1500.74 102.094 1499.75 101.734 1498.94 101.012C1498.22 100.2 1497.86 99.2071 1497.86 98.0341V11.4138C1497.86 10.2408 1498.22 9.29338 1498.94 8.57154C1499.75 7.75947 1500.74 7.35344 1501.92 7.35344H1551.59C1552.76 7.35344 1553.71 7.75947 1554.43 8.57154C1555.24 9.29338 1555.65 10.2408 1555.65 11.4138C1555.65 12.5868 1555.24 13.5342 1554.43 14.256C1553.71 14.9778 1552.76 15.3388 1551.59 15.3388H1506.38V49.3102H1545.5C1546.67 49.3102 1547.62 49.7162 1548.34 50.5283C1549.15 51.2501 1549.56 52.1975 1549.56 53.3705C1549.56 54.5435 1549.15 55.4909 1548.34 56.2127C1547.62 56.9346 1546.67 57.2955 1545.5 57.2955H1506.38V94.1091H1551.59Z"/>
</mask>
<path d="M89.4291 7.35344C90.5119 7.35344 91.4142 7.75947 92.136 8.57154C92.9481 9.29338 93.3541 10.2408 93.3541 11.4138V98.0341C93.3541 99.2071 92.9481 100.2 92.136 101.012C91.324 101.734 90.3314 102.094 89.1584 102.094C87.8952 102.094 86.8576 101.734 86.0455 101.012C85.2335 100.2 84.8274 99.2071 84.8274 98.0341V23.5948L53.0215 71.7773C52.1192 72.9503 51.0816 73.4917 49.9086 73.4014H49.6379C48.5552 73.4014 47.5627 72.8601 46.6604 71.7773L14.8545 23.3241V98.0341C14.8545 99.2071 14.4484 100.2 13.6364 101.012C12.9145 101.734 11.9671 102.094 10.7941 102.094C9.62114 102.094 8.67373 101.734 7.9519 101.012C7.23006 100.2 6.86914 99.2071 6.86914 98.0341V11.4138C6.86914 10.331 7.23006 9.38361 7.9519 8.57154C8.76396 7.75947 9.75649 7.35344 10.9295 7.35344C11.5611 7.35344 12.2378 7.5339 12.9596 7.89482C13.6815 8.16551 14.2228 8.57154 14.5838 9.11292L50.044 62.3032L85.7748 9.11292C86.7674 7.75948 87.9855 7.17298 89.4291 7.35344Z" stroke="white" stroke-width="12" mask="url(#path-1-outside-1)"/>
<path d="M196.642 7.35344C197.815 7.35344 198.762 7.75947 199.484 8.57154C200.296 9.29338 200.702 10.2408 200.702 11.4138V67.4463C200.702 74.033 199.123 80.0784 195.965 85.5824C192.807 91.0864 188.521 95.4174 183.107 98.5755C177.694 101.734 171.739 103.313 165.242 103.313C158.655 103.313 152.655 101.734 147.241 98.5755C141.827 95.4174 137.542 91.0864 134.384 85.5824C131.225 80.0784 129.646 74.033 129.646 67.4463V11.4138C129.646 10.2408 130.007 9.29338 130.729 8.57154C131.541 7.75947 132.624 7.35344 133.977 7.35344C135.06 7.35344 136.008 7.75947 136.82 8.57154C137.632 9.29338 138.038 10.2408 138.038 11.4138V67.4463C138.038 72.4991 139.256 77.146 141.692 81.3868C144.128 85.6275 147.422 89.0112 151.572 91.5376C155.813 93.9738 160.37 95.1919 165.242 95.1919C170.205 95.1919 174.761 93.9738 178.912 91.5376C183.153 89.0112 186.491 85.6275 188.927 81.3868C191.454 77.146 192.717 72.4991 192.717 67.4463V11.4138C192.717 10.2408 193.078 9.29338 193.8 8.57154C194.522 7.75947 195.469 7.35344 196.642 7.35344Z" stroke="white" stroke-width="12" mask="url(#path-1-outside-1)"/>
<path d="M261.218 103.448C254.721 103.448 248.947 102.365 243.894 100.2C238.931 98.0341 234.104 94.6505 229.412 90.0488C228.329 89.1465 227.788 88.0637 227.788 86.8005C227.788 85.7178 228.194 84.7253 229.006 83.823C229.908 82.9207 230.901 82.4695 231.984 82.4695C233.066 82.4695 234.059 82.9207 234.961 83.823C241.999 91.5827 250.797 95.4626 261.353 95.4626C267.85 95.4626 273.219 93.9287 277.459 90.8609C281.79 87.7931 283.956 83.7778 283.956 78.8152C283.956 74.9353 282.873 71.7322 280.708 69.2058C278.632 66.5891 275.88 64.4687 272.452 62.8446C269.023 61.2205 264.647 59.5512 259.323 57.8369C253.549 56.1225 248.676 54.2277 244.706 52.1524C240.826 50.0771 237.668 47.3251 235.232 43.8964C232.796 40.3774 231.578 35.9562 231.578 30.6327C231.578 25.8505 232.841 21.6097 235.367 17.9103C237.984 14.2109 241.593 11.3235 246.195 9.24826C250.887 7.08275 256.255 6 262.301 6C267.805 6 272.948 6.94741 277.73 8.84223C282.602 10.6468 286.482 13.2635 289.37 16.6922C290.723 18.2261 291.4 19.5344 291.4 20.6172C291.4 21.6097 290.949 22.5571 290.046 23.4594C289.144 24.2715 288.152 24.6775 287.069 24.6775C286.166 24.6775 285.4 24.3617 284.768 23.7301C282.332 20.8428 279.083 18.4968 275.023 16.6922C270.963 14.8876 266.722 13.9853 262.301 13.9853C255.714 13.9853 250.345 15.4741 246.195 18.4517C242.044 21.339 239.969 25.3091 239.969 30.362C239.969 35.5953 241.954 39.6105 245.924 42.4076C249.894 45.2047 255.579 47.7763 262.977 50.1222C269.384 52.0171 274.617 53.957 278.677 55.942C282.738 57.9271 286.031 60.7693 288.558 64.4687C291.174 68.0779 292.483 72.8601 292.483 78.8152C292.483 83.4169 291.129 87.6126 288.422 91.4022C285.806 95.1016 282.106 98.0341 277.324 100.2C272.632 102.365 267.263 103.448 261.218 103.448Z" stroke="white" stroke-width="12" mask="url(#path-1-outside-1)"/>
<path d="M330.991 97.8988C330.901 99.0717 330.45 100.064 329.638 100.876C328.826 101.688 327.833 102.094 326.66 102.094C325.397 102.094 324.359 101.734 323.547 101.012C322.825 100.2 322.464 99.162 322.464 97.8988V11.5491C322.464 10.2859 322.87 9.29338 323.683 8.57154C324.495 7.75947 325.532 7.35344 326.795 7.35344C327.968 7.35344 328.961 7.75947 329.773 8.57154C330.585 9.38361 330.991 10.3761 330.991 11.5491V97.8988Z" stroke="white" stroke-width="12" mask="url(#path-1-outside-1)"/>
<path d="M436.289 14.3913C437.642 15.2034 438.319 16.3313 438.319 17.775C438.319 18.587 438.003 19.4893 437.372 20.4818C436.56 21.4744 435.522 21.9706 434.259 21.9706C433.537 21.9706 432.815 21.7451 432.093 21.2939C424.875 16.5117 416.98 14.1207 408.408 14.1207C401.1 14.1207 394.468 15.835 388.512 19.2637C382.648 22.6925 378.001 27.5197 374.572 33.7456C371.234 39.8812 369.564 46.874 369.564 54.7239C369.564 62.7544 371.279 69.8825 374.707 76.1083C378.136 82.2439 382.783 87.0261 388.648 90.4548C394.603 93.7933 401.19 95.4626 408.408 95.4626C416.98 95.4626 424.83 93.1166 431.958 88.4247C432.68 87.9735 433.447 87.7479 434.259 87.7479C435.522 87.7479 436.56 88.2893 437.372 89.3721C438.003 90.0939 438.319 90.9511 438.319 91.9436C438.319 93.3873 437.688 94.47 436.424 95.1919C432.905 97.5378 428.574 99.5229 423.431 101.147C418.288 102.681 413.281 103.448 408.408 103.448C399.836 103.448 391.896 101.418 384.587 97.3574C377.369 93.2068 371.594 87.4321 367.263 80.0333C363.023 72.6345 360.902 64.198 360.902 54.7239C360.902 45.6108 363.023 37.3548 367.263 29.9559C371.504 22.4669 377.234 16.6471 384.452 12.4965C391.671 8.25574 399.656 6.13534 408.408 6.13534C413.461 6.13534 418.378 6.85718 423.161 8.30086C428.033 9.74452 432.409 11.7747 436.289 14.3913Z" stroke="white" stroke-width="12" mask="url(#path-1-outside-1)"/>
<path d="M537.029 96.6807C537.209 97.4025 537.299 97.9439 537.299 98.3048C537.299 99.4778 536.893 100.425 536.081 101.147C535.269 101.869 534.322 102.23 533.239 102.23C532.337 102.23 531.524 102.004 530.803 101.553C530.171 101.012 529.675 100.335 529.314 99.5229L519.163 74.7549H475.176L465.161 99.5229C464.439 101.327 463.221 102.23 461.506 102.23C460.243 102.23 459.296 101.914 458.664 101.282C458.033 100.651 457.672 99.7936 457.581 98.7108V98.3048C457.581 97.7634 457.627 97.3574 457.717 97.0867L493.448 9.6543C494.169 7.84971 495.523 6.94741 497.508 6.94741C498.41 6.94741 499.177 7.2181 499.809 7.75948C500.531 8.21062 501.072 8.84223 501.433 9.6543L537.029 96.6807ZM515.915 66.7696L496.967 20.4818L478.289 66.7696H515.915Z" stroke="white" stroke-width="12" mask="url(#path-1-outside-1)"/>
<path d="M617.215 94.1091C618.388 94.1091 619.335 94.47 620.057 95.1919C620.869 95.9137 621.275 96.8611 621.275 98.0341C621.275 99.2071 620.869 100.2 620.057 101.012C619.335 101.734 618.388 102.094 617.215 102.094H568.897C567.724 102.094 566.731 101.734 565.919 101.012C565.197 100.2 564.836 99.2071 564.836 98.0341V11.4138C564.836 10.2408 565.242 9.29338 566.055 8.57154C566.867 7.75947 567.904 7.35344 569.167 7.35344C570.34 7.35344 571.333 7.75947 572.145 8.57154C572.957 9.29338 573.363 10.2408 573.363 11.4138V94.1091H617.215Z" stroke="white" stroke-width="12" mask="url(#path-1-outside-1)"/>
<path d="M749.265 94.1091C750.438 94.1091 751.386 94.5151 752.107 95.3272C752.919 96.1393 753.326 97.0867 753.326 98.1695C753.326 99.3424 752.919 100.29 752.107 101.012C751.386 101.734 750.438 102.094 749.265 102.094H699.594C698.421 102.094 697.428 101.734 696.616 101.012C695.894 100.2 695.534 99.2071 695.534 98.0341V11.4138C695.534 10.2408 695.894 9.29338 696.616 8.57154C697.428 7.75947 698.421 7.35344 699.594 7.35344H749.265C750.438 7.35344 751.386 7.75947 752.107 8.57154C752.919 9.29338 753.326 10.2408 753.326 11.4138C753.326 12.5868 752.919 13.5342 752.107 14.256C751.386 14.9778 750.438 15.3388 749.265 15.3388H704.06V49.3102H743.175C744.348 49.3102 745.295 49.7162 746.017 50.5283C746.829 51.2501 747.235 52.1975 747.235 53.3705C747.235 54.5435 746.829 55.4909 746.017 56.2127C745.295 56.9346 744.348 57.2955 743.175 57.2955H704.06V94.1091H749.265Z" stroke="white" stroke-width="12" mask="url(#path-1-outside-1)"/>
<path d="M847.032 96.0039C847.664 96.9062 847.98 97.7183 847.98 98.4401C847.98 99.7033 847.529 100.741 846.626 101.553C845.814 102.275 844.867 102.636 843.784 102.636C842.431 102.636 841.348 102.049 840.536 100.876L811.302 61.2205L782.202 100.741C781.39 102.004 780.308 102.636 778.954 102.636C777.872 102.636 776.969 102.275 776.247 101.553C775.616 100.741 775.3 99.8838 775.3 98.9815C775.3 98.0792 775.616 97.1769 776.247 96.2746L806.7 54.8593L776.112 13.4439C775.48 12.7221 775.165 11.91 775.165 11.0077C775.165 9.92498 775.571 8.97757 776.383 8.16551C777.285 7.35345 778.278 6.94741 779.36 6.94741C780.714 6.94741 781.842 7.48879 782.744 8.57154L811.843 48.2274L840.807 8.70688C841.799 7.5339 842.882 6.94741 844.055 6.94741C845.138 6.94741 846.04 7.30833 846.762 8.03016C847.574 8.66177 847.98 9.47384 847.98 10.4664C847.98 11.1882 847.664 12.0454 847.032 13.0379L816.58 54.5886L847.032 96.0039Z" stroke="white" stroke-width="12" mask="url(#path-1-outside-1)"/>
<path d="M912.329 7.35344C917.291 7.35344 921.758 8.52643 925.728 10.8724C929.698 13.1281 932.766 16.3313 934.931 20.4818C937.187 24.5422 938.315 29.1439 938.315 34.2869C938.315 39.43 937.187 44.122 934.931 48.3628C932.766 52.6035 929.698 55.942 925.728 58.3782C921.758 60.8144 917.291 62.0325 912.329 62.0325H884.312V98.0341C884.312 99.2071 883.906 100.2 883.094 101.012C882.372 101.734 881.425 102.094 880.252 102.094C879.079 102.094 878.086 101.734 877.274 101.012C876.553 100.2 876.192 99.2071 876.192 98.0341V11.4138C876.192 10.2408 876.553 9.29338 877.274 8.57154C878.086 7.75947 879.079 7.35344 880.252 7.35344H912.329ZM912.329 54.1826C917.562 54.1826 921.803 52.2877 925.051 48.4981C928.299 44.7085 929.923 39.9714 929.923 34.2869C929.923 28.6927 928.299 24.1361 925.051 20.6172C921.803 17.0982 917.562 15.3388 912.329 15.3388H884.312V54.1826H912.329Z" stroke="white" stroke-width="12" mask="url(#path-1-outside-1)"/>
<path d="M1021.38 94.1091C1022.55 94.1091 1023.5 94.5151 1024.22 95.3272C1025.03 96.1393 1025.44 97.0867 1025.44 98.1695C1025.44 99.3424 1025.03 100.29 1024.22 101.012C1023.5 101.734 1022.55 102.094 1021.38 102.094H971.705C970.532 102.094 969.539 101.734 968.727 101.012C968.005 100.2 967.644 99.2071 967.644 98.0341V11.4138C967.644 10.2408 968.005 9.29338 968.727 8.57154C969.539 7.75947 970.532 7.35344 971.705 7.35344H1021.38C1022.55 7.35344 1023.5 7.75947 1024.22 8.57154C1025.03 9.29338 1025.44 10.2408 1025.44 11.4138C1025.44 12.5868 1025.03 13.5342 1024.22 14.256C1023.5 14.9778 1022.55 15.3388 1021.38 15.3388H976.171V49.3102H1015.29C1016.46 49.3102 1017.41 49.7162 1018.13 50.5283C1018.94 51.2501 1019.35 52.1975 1019.35 53.3705C1019.35 54.5435 1018.94 55.4909 1018.13 56.2127C1017.41 56.9346 1016.46 57.2955 1015.29 57.2955H976.171V94.1091H1021.38Z" stroke="white" stroke-width="12" mask="url(#path-1-outside-1)"/>
<path d="M1124.56 94.7858C1125.91 95.6881 1126.59 96.816 1126.59 98.1695C1126.59 98.6206 1126.41 99.2071 1126.05 99.9289C1125.68 100.561 1125.19 101.057 1124.56 101.418C1123.93 101.779 1123.25 101.959 1122.53 101.959C1121.62 101.959 1120.86 101.779 1120.23 101.418C1117.7 99.974 1115.67 97.6281 1114.14 94.3798C1112.6 91.1315 1111.83 85.9433 1111.83 78.8152C1111.83 72.4991 1110.08 68.0779 1106.56 65.5515C1103.04 62.9348 1098.84 61.6265 1093.97 61.6265H1063.92V98.0341C1063.92 99.2071 1063.56 100.2 1062.84 101.012C1062.12 101.734 1061.17 102.094 1060 102.094C1058.73 102.094 1057.65 101.734 1056.75 101.012C1055.85 100.2 1055.4 99.2071 1055.4 98.0341V11.4138C1055.4 10.2408 1055.76 9.29338 1056.48 8.57154C1057.29 7.75947 1058.28 7.35344 1059.46 7.35344H1096C1101.14 7.35344 1105.74 8.48131 1109.8 10.7371C1113.86 12.9026 1117.02 15.9252 1119.28 19.8051C1121.62 23.685 1122.8 28.0611 1122.8 32.9335C1122.8 38.7082 1121.26 43.8062 1118.2 48.2274C1115.22 52.5584 1111.29 55.536 1106.42 57.1601C1110.39 58.694 1113.64 61.3107 1116.17 65.0101C1118.69 68.6193 1120 73.0405 1120.09 78.2738C1120.18 83.8681 1120.54 87.7931 1121.17 90.0488C1121.9 92.3045 1123.02 93.8835 1124.56 94.7858ZM1096.41 54.1826C1099.56 53.9119 1102.5 52.8742 1105.2 51.0696C1107.91 49.2651 1110.08 46.8289 1111.7 43.761C1113.32 40.6932 1114.14 37.1743 1114.14 33.2042C1114.14 28.0611 1112.38 23.8203 1108.86 20.4818C1105.43 17.0531 1100.92 15.3388 1095.32 15.3388H1063.92V54.1826H1096.41Z" stroke="white" stroke-width="12" mask="url(#path-1-outside-1)"/>
<path d="M1165.42 97.8988C1165.33 99.0717 1164.88 100.064 1164.07 100.876C1163.25 101.688 1162.26 102.094 1161.09 102.094C1159.83 102.094 1158.79 101.734 1157.98 101.012C1157.25 100.2 1156.89 99.162 1156.89 97.8988V11.5491C1156.89 10.2859 1157.3 9.29338 1158.11 8.57154C1158.92 7.75947 1159.96 7.35344 1161.22 7.35344C1162.4 7.35344 1163.39 7.75947 1164.2 8.57154C1165.01 9.38361 1165.42 10.3761 1165.42 11.5491V97.8988Z" stroke="white" stroke-width="12" mask="url(#path-1-outside-1)"/>
<path d="M1255.29 94.1091C1256.46 94.1091 1257.41 94.5151 1258.13 95.3272C1258.94 96.1393 1259.35 97.0867 1259.35 98.1695C1259.35 99.3424 1258.94 100.29 1258.13 101.012C1257.41 101.734 1256.46 102.094 1255.29 102.094H1205.62C1204.44 102.094 1203.45 101.734 1202.64 101.012C1201.92 100.2 1201.56 99.2071 1201.56 98.0341V11.4138C1201.56 10.2408 1201.92 9.29338 1202.64 8.57154C1203.45 7.75947 1204.44 7.35344 1205.62 7.35344H1255.29C1256.46 7.35344 1257.41 7.75947 1258.13 8.57154C1258.94 9.29338 1259.35 10.2408 1259.35 11.4138C1259.35 12.5868 1258.94 13.5342 1258.13 14.256C1257.41 14.9778 1256.46 15.3388 1255.29 15.3388H1210.08V49.3102H1249.2C1250.37 49.3102 1251.32 49.7162 1252.04 50.5283C1252.85 51.2501 1253.26 52.1975 1253.26 53.3705C1253.26 54.5435 1252.85 55.4909 1252.04 56.2127C1251.32 56.9346 1250.37 57.2955 1249.2 57.2955H1210.08V94.1091H1255.29Z" stroke="white" stroke-width="12" mask="url(#path-1-outside-1)"/>
<path d="M1358.61 7.35344C1359.78 7.35344 1360.68 7.71436 1361.31 8.4362C1362.03 9.15804 1362.39 10.0603 1362.39 11.1431V97.7634C1362.39 99.1169 1361.99 100.2 1361.18 101.012C1360.36 101.734 1359.37 102.094 1358.2 102.094C1357.57 102.094 1356.94 101.959 1356.3 101.688C1355.76 101.418 1355.31 101.102 1354.95 100.741L1296.89 22.512V98.4401C1296.89 99.4327 1296.48 100.29 1295.67 101.012C1294.95 101.734 1294.09 102.094 1293.1 102.094C1292.02 102.094 1291.11 101.734 1290.39 101.012C1289.67 100.29 1289.31 99.4327 1289.31 98.4401V11.4138C1289.31 10.1506 1289.67 9.15804 1290.39 8.4362C1291.2 7.71436 1292.15 7.35344 1293.23 7.35344C1294.68 7.35344 1295.76 7.84971 1296.48 8.84223L1354.82 87.4772V11.1431C1354.82 10.0603 1355.18 9.15804 1355.9 8.4362C1356.62 7.71436 1357.52 7.35344 1358.61 7.35344Z" stroke="white" stroke-width="12" mask="url(#path-1-outside-1)"/>
<path d="M1467.77 14.3913C1469.12 15.2034 1469.8 16.3313 1469.8 17.775C1469.8 18.587 1469.48 19.4893 1468.85 20.4818C1468.04 21.4744 1467 21.9706 1465.74 21.9706C1465.01 21.9706 1464.29 21.7451 1463.57 21.2939C1456.35 16.5117 1448.46 14.1207 1439.88 14.1207C1432.58 14.1207 1425.94 15.835 1419.99 19.2637C1414.12 22.6925 1409.48 27.5197 1406.05 33.7456C1402.71 39.8812 1401.04 46.874 1401.04 54.7239C1401.04 62.7544 1402.76 69.8825 1406.18 76.1083C1409.61 82.2439 1414.26 87.0261 1420.12 90.4548C1426.08 93.7933 1432.67 95.4626 1439.88 95.4626C1448.46 95.4626 1456.31 93.1166 1463.43 88.4247C1464.16 87.9735 1464.92 87.7479 1465.74 87.7479C1467 87.7479 1468.04 88.2893 1468.85 89.3721C1469.48 90.0939 1469.8 90.9511 1469.8 91.9436C1469.8 93.3873 1469.16 94.47 1467.9 95.1919C1464.38 97.5378 1460.05 99.5229 1454.91 101.147C1449.76 102.681 1444.76 103.448 1439.88 103.448C1431.31 103.448 1423.37 101.418 1416.06 97.3574C1408.85 93.2068 1403.07 87.4321 1398.74 80.0333C1394.5 72.6345 1392.38 64.198 1392.38 54.7239C1392.38 45.6108 1394.5 37.3548 1398.74 29.9559C1402.98 22.4669 1408.71 16.6471 1415.93 12.4965C1423.15 8.25574 1431.13 6.13534 1439.88 6.13534C1444.94 6.13534 1449.85 6.85718 1454.64 8.30086C1459.51 9.74452 1463.89 11.7747 1467.77 14.3913Z" stroke="white" stroke-width="12" mask="url(#path-1-outside-1)"/>
<path d="M1551.59 94.1091C1552.76 94.1091 1553.71 94.5151 1554.43 95.3272C1555.24 96.1393 1555.65 97.0867 1555.65 98.1695C1555.65 99.3424 1555.24 100.29 1554.43 101.012C1553.71 101.734 1552.76 102.094 1551.59 102.094H1501.92C1500.74 102.094 1499.75 101.734 1498.94 101.012C1498.22 100.2 1497.86 99.2071 1497.86 98.0341V11.4138C1497.86 10.2408 1498.22 9.29338 1498.94 8.57154C1499.75 7.75947 1500.74 7.35344 1501.92 7.35344H1551.59C1552.76 7.35344 1553.71 7.75947 1554.43 8.57154C1555.24 9.29338 1555.65 10.2408 1555.65 11.4138C1555.65 12.5868 1555.24 13.5342 1554.43 14.256C1553.71 14.9778 1552.76 15.3388 1551.59 15.3388H1506.38V49.3102H1545.5C1546.67 49.3102 1547.62 49.7162 1548.34 50.5283C1549.15 51.2501 1549.56 52.1975 1549.56 53.3705C1549.56 54.5435 1549.15 55.4909 1548.34 56.2127C1547.62 56.9346 1546.67 57.2955 1545.5 57.2955H1506.38V94.1091H1551.59Z" stroke="white" stroke-width="12" mask="url(#path-1-outside-1)"/>
<path d="M329.101 187.7C329.289 188.188 329.383 188.64 329.383 189.053C329.383 190.031 329.064 190.839 328.424 191.478C327.785 192.08 327.052 192.38 326.225 192.38C325.548 192.38 324.928 192.173 324.364 191.76C323.838 191.346 323.424 190.782 323.123 190.068L320.191 183.245H303.386L300.453 190.125C300.19 190.839 299.777 191.403 299.213 191.816C298.686 192.192 298.104 192.38 297.464 192.38C296.487 192.38 295.735 192.117 295.209 191.591C294.72 191.064 294.476 190.35 294.476 189.448C294.476 189.109 294.532 188.752 294.645 188.376L308.687 154.653C308.988 153.901 309.439 153.318 310.04 152.905C310.642 152.491 311.318 152.322 312.07 152.397C312.747 152.397 313.367 152.604 313.931 153.018C314.533 153.394 314.965 153.939 315.228 154.653L329.101 187.7ZM317.428 176.759L311.732 163.563L306.149 176.759H317.428Z" fill="white"/>
<path d="M418.031 152.567C418.97 152.567 419.779 152.905 420.455 153.582C421.17 154.221 421.527 155.029 421.527 156.006V188.658C421.527 189.636 421.207 190.463 420.568 191.14C419.929 191.779 419.083 192.098 418.031 192.098C416.978 192.098 416.113 191.779 415.436 191.14C414.797 190.5 414.478 189.673 414.478 188.658V165.932L405.173 180.143C404.797 180.594 404.365 180.97 403.876 181.271C403.387 181.534 402.879 181.647 402.353 181.609C401.864 181.647 401.376 181.534 400.887 181.271C400.398 180.97 399.966 180.594 399.59 180.143L390.285 165.424V188.658C390.285 189.673 389.984 190.5 389.383 191.14C388.781 191.779 387.992 192.098 387.014 192.098C386.074 192.098 385.304 191.779 384.702 191.14C384.1 190.463 383.8 189.636 383.8 188.658V156.006C383.8 155.067 384.138 154.258 384.815 153.582C385.529 152.905 386.375 152.567 387.353 152.567C387.916 152.567 388.48 152.717 389.044 153.018C389.608 153.281 390.041 153.638 390.341 154.089L402.635 172.981L415.267 154.089C415.568 153.638 415.963 153.281 416.452 153.018C416.978 152.717 417.504 152.567 418.031 152.567Z" fill="white"/>
<path d="M474.95 152.567C475.928 152.567 476.717 152.886 477.319 153.525C477.921 154.164 478.221 154.991 478.221 156.006V176.421C478.221 179.541 477.563 182.305 476.248 184.711C474.932 187.117 473.089 188.997 470.721 190.35C468.352 191.704 465.646 192.38 462.6 192.38C459.555 192.38 456.829 191.704 454.423 190.35C452.055 188.997 450.213 187.117 448.897 184.711C447.581 182.305 446.923 179.541 446.923 176.421V156.006C446.923 155.029 447.261 154.221 447.938 153.582C448.615 152.905 449.479 152.567 450.532 152.567C451.434 152.567 452.224 152.905 452.901 153.582C453.577 154.221 453.916 155.029 453.916 156.006V176.421C453.916 178.226 454.31 179.842 455.1 181.271C455.889 182.662 456.942 183.733 458.258 184.485C459.611 185.237 461.059 185.613 462.6 185.613C464.217 185.613 465.721 185.237 467.112 184.485C468.54 183.733 469.668 182.662 470.495 181.271C471.36 179.842 471.792 178.226 471.792 176.421V156.006C471.792 154.991 472.074 154.164 472.638 153.525C473.202 152.886 473.973 152.567 474.95 152.567Z" fill="white"/>
<path d="M515.741 192.662C513.034 192.662 510.628 192.324 508.522 191.647C506.417 190.97 504.443 189.824 502.601 188.207C501.586 187.305 501.078 186.309 501.078 185.218C501.078 184.354 501.398 183.602 502.037 182.963C502.676 182.286 503.447 181.947 504.349 181.947C505.063 181.947 505.703 182.173 506.266 182.624C507.77 183.865 509.236 184.767 510.665 185.331C512.094 185.895 513.786 186.177 515.741 186.177C517.846 186.177 519.65 185.707 521.154 184.767C522.696 183.827 523.466 182.662 523.466 181.271C523.466 179.579 522.715 178.263 521.211 177.323C519.707 176.346 517.32 175.613 514.049 175.124C505.815 173.921 501.699 170.086 501.699 163.62C501.699 161.251 502.319 159.202 503.56 157.473C504.8 155.706 506.492 154.371 508.635 153.469C510.778 152.529 513.165 152.059 515.797 152.059C518.165 152.059 520.384 152.416 522.451 153.13C524.557 153.845 526.305 154.785 527.696 155.95C528.786 156.815 529.331 157.811 529.331 158.939C529.331 159.804 529.012 160.574 528.373 161.251C527.734 161.89 526.982 162.21 526.117 162.21C525.553 162.21 525.045 162.041 524.594 161.702C523.617 160.913 522.245 160.198 520.478 159.559C518.748 158.883 517.188 158.544 515.797 158.544C513.428 158.544 511.586 158.995 510.27 159.898C508.992 160.762 508.353 161.909 508.353 163.338C508.353 164.954 509.011 166.176 510.327 167.003C511.68 167.83 513.786 168.507 516.643 169.033C519.876 169.597 522.451 170.33 524.369 171.233C526.324 172.097 527.79 173.3 528.767 174.842C529.745 176.346 530.234 178.357 530.234 180.876C530.234 183.245 529.557 185.331 528.203 187.136C526.888 188.903 525.121 190.275 522.903 191.252C520.684 192.192 518.297 192.662 515.741 192.662Z" fill="white"/>
<path d="M560.668 188.658C560.668 189.636 560.311 190.463 559.597 191.14C558.882 191.779 558.055 192.098 557.115 192.098C556.1 192.098 555.254 191.779 554.578 191.14C553.938 190.463 553.619 189.636 553.619 188.658V156.063C553.619 155.085 553.957 154.277 554.634 153.638C555.311 152.961 556.175 152.623 557.228 152.623C558.168 152.623 558.976 152.961 559.653 153.638C560.33 154.277 560.668 155.085 560.668 156.063V188.658Z" fill="white"/>
<path d="M613.7 154.54C614.865 155.142 615.448 156.1 615.448 157.416C615.448 158.206 615.166 158.977 614.602 159.728C614.001 160.518 613.23 160.913 612.29 160.913C611.651 160.913 611.012 160.744 610.373 160.405C608.531 159.54 606.538 159.108 604.395 159.108C601.763 159.108 599.47 159.672 597.515 160.8C595.56 161.89 594.056 163.45 593.004 165.481C591.951 167.473 591.425 169.767 591.425 172.361C591.425 176.797 592.609 180.162 594.977 182.455C597.383 184.748 600.523 185.895 604.395 185.895C606.688 185.895 608.681 185.463 610.373 184.598C611.049 184.297 611.651 184.147 612.177 184.147C613.155 184.147 613.982 184.56 614.659 185.387C615.223 186.102 615.505 186.873 615.505 187.7C615.505 188.301 615.354 188.846 615.053 189.335C614.753 189.824 614.32 190.2 613.756 190.463C610.824 191.929 607.703 192.662 604.395 192.662C600.711 192.662 597.327 191.892 594.244 190.35C591.161 188.771 588.699 186.459 586.857 183.414C585.014 180.368 584.093 176.684 584.093 172.361C584.093 168.526 584.958 165.086 586.687 162.041C588.454 158.995 590.879 156.627 593.962 154.935C597.045 153.206 600.523 152.341 604.395 152.341C607.741 152.341 610.843 153.074 613.7 154.54Z" fill="white"/>
<path d="M669.301 187.7C669.489 188.188 669.583 188.64 669.583 189.053C669.583 190.031 669.264 190.839 668.625 191.478C667.985 192.08 667.252 192.38 666.425 192.38C665.748 192.38 665.128 192.173 664.564 191.76C664.038 191.346 663.624 190.782 663.324 190.068L660.391 183.245H643.586L640.653 190.125C640.39 190.839 639.977 191.403 639.413 191.816C638.886 192.192 638.304 192.38 637.665 192.38C636.687 192.38 635.935 192.117 635.409 191.591C634.92 191.064 634.676 190.35 634.676 189.448C634.676 189.109 634.732 188.752 634.845 188.376L648.887 154.653C649.188 153.901 649.639 153.318 650.24 152.905C650.842 152.491 651.518 152.322 652.27 152.397C652.947 152.397 653.567 152.604 654.131 153.018C654.733 153.394 655.165 153.939 655.428 154.653L669.301 187.7ZM657.628 176.759L651.932 163.563L646.349 176.759H657.628Z" fill="white"/>
<path d="M713.044 185.5C714.022 185.5 714.83 185.82 715.469 186.459C716.146 187.06 716.484 187.85 716.484 188.827C716.484 189.767 716.146 190.557 715.469 191.196C714.83 191.798 714.022 192.098 713.044 192.098H694.716C693.739 192.098 692.912 191.779 692.235 191.14C691.596 190.463 691.276 189.636 691.276 188.658V156.063C691.276 155.085 691.615 154.277 692.291 153.638C692.968 152.961 693.833 152.623 694.885 152.623C695.825 152.623 696.634 152.961 697.31 153.638C697.987 154.277 698.325 155.085 698.325 156.063V185.5H713.044Z" fill="white"/>
<path d="M794.916 185.613C795.893 185.613 796.702 185.951 797.341 186.628C798.017 187.267 798.356 188.019 798.356 188.884C798.356 189.824 798.017 190.594 797.341 191.196C796.702 191.798 795.893 192.098 794.916 192.098H776.024C775.047 192.098 774.219 191.779 773.543 191.14C772.904 190.463 772.584 189.636 772.584 188.658V156.063C772.584 155.085 772.904 154.277 773.543 153.638C774.219 152.961 775.047 152.623 776.024 152.623H794.916C795.893 152.623 796.702 152.942 797.341 153.582C798.017 154.183 798.356 154.973 798.356 155.95C798.356 156.89 798.036 157.661 797.397 158.262C796.758 158.826 795.931 159.108 794.916 159.108H779.633V168.695H792.378C793.356 168.695 794.164 169.015 794.803 169.654C795.48 170.255 795.818 171.045 795.818 172.022C795.818 172.962 795.499 173.733 794.859 174.334C794.22 174.898 793.393 175.18 792.378 175.18H779.633V185.613H794.916Z" fill="white"/>
<path d="M851.211 186.91C851.663 187.512 851.888 188.207 851.888 188.997C851.888 189.974 851.531 190.782 850.817 191.422C850.102 192.061 849.332 192.38 848.505 192.38C847.414 192.38 846.493 191.892 845.741 190.914L835.703 177.549L825.947 190.801C825.195 191.854 824.255 192.38 823.128 192.38C822.3 192.38 821.586 192.08 820.985 191.478C820.383 190.876 820.082 190.181 820.082 189.391C820.082 188.564 820.364 187.794 820.928 187.079L831.812 172.361L820.928 157.924C820.439 157.322 820.195 156.646 820.195 155.894C820.195 154.954 820.552 154.146 821.267 153.469C821.981 152.792 822.77 152.454 823.635 152.454C824.725 152.454 825.646 152.942 826.398 153.92L836.324 167.116L846.023 154.202C846.399 153.676 846.832 153.281 847.32 153.018C847.809 152.717 848.298 152.567 848.787 152.567C849.614 152.567 850.347 152.905 850.986 153.582C851.625 154.221 851.945 154.935 851.945 155.725C851.945 156.439 851.7 157.116 851.211 157.755L840.215 172.248L851.211 186.91Z" fill="white"/>
<path d="M891.943 152.623C893.86 152.623 895.684 153.206 897.413 154.371C899.143 155.499 900.534 157.04 901.586 158.995C902.639 160.913 903.165 163.018 903.165 165.311C903.165 167.567 902.639 169.673 901.586 171.627C900.534 173.582 899.143 175.143 897.413 176.308C895.684 177.436 893.86 178 891.943 178H882.131V188.658C882.131 189.673 881.83 190.5 881.228 191.14C880.627 191.779 879.837 192.098 878.86 192.098C877.92 192.098 877.149 191.779 876.548 191.14C875.946 190.463 875.645 189.636 875.645 188.658V156.063C875.645 155.085 875.965 154.277 876.604 153.638C877.281 152.961 878.108 152.623 879.085 152.623H891.943ZM891.943 171.571C892.657 171.571 893.353 171.27 894.03 170.669C894.744 170.067 895.308 169.297 895.721 168.357C896.172 167.379 896.398 166.364 896.398 165.311C896.398 164.259 896.172 163.262 895.721 162.323C895.308 161.345 894.744 160.574 894.03 160.01C893.353 159.409 892.657 159.108 891.943 159.108H882.131V171.571H891.943Z" fill="white"/>
<path d="M948.874 185.613C949.852 185.613 950.66 185.951 951.299 186.628C951.976 187.267 952.314 188.019 952.314 188.884C952.314 189.824 951.976 190.594 951.299 191.196C950.66 191.798 949.852 192.098 948.874 192.098H929.983C929.005 192.098 928.178 191.779 927.501 191.14C926.862 190.463 926.543 189.636 926.543 188.658V156.063C926.543 155.085 926.862 154.277 927.501 153.638C928.178 152.961 929.005 152.623 929.983 152.623H948.874C949.852 152.623 950.66 152.942 951.299 153.582C951.976 154.183 952.314 154.973 952.314 155.95C952.314 156.89 951.995 157.661 951.356 158.262C950.717 158.826 949.889 159.108 948.874 159.108H933.592V168.695H946.337C947.314 168.695 948.122 169.015 948.762 169.654C949.438 170.255 949.777 171.045 949.777 172.022C949.777 172.962 949.457 173.733 948.818 174.334C948.179 174.898 947.352 175.18 946.337 175.18H933.592V185.613H948.874Z" fill="white"/>
<path d="M1006.69 186.572C1007.18 186.873 1007.56 187.267 1007.82 187.756C1008.12 188.245 1008.27 188.752 1008.27 189.279C1008.27 189.955 1008.05 190.576 1007.59 191.14C1007.03 191.816 1006.17 192.155 1005 192.155C1004.1 192.155 1003.27 191.948 1002.52 191.534C999.813 189.993 998.459 186.854 998.459 182.117C998.459 180.763 998.008 179.692 997.106 178.902C996.241 178.113 994.982 177.718 993.327 177.718H982.782V188.658C982.782 189.673 982.5 190.5 981.936 191.14C981.41 191.779 980.695 192.098 979.793 192.098C978.703 192.098 977.744 191.779 976.917 191.14C976.127 190.463 975.733 189.636 975.733 188.658V156.063C975.733 155.085 976.052 154.277 976.691 153.638C977.368 152.961 978.195 152.623 979.173 152.623H995.414C997.369 152.623 999.211 153.149 1000.94 154.202C1002.67 155.255 1004.04 156.702 1005.06 158.544C1006.11 160.386 1006.64 162.454 1006.64 164.747C1006.64 166.627 1006.13 168.469 1005.11 170.274C1004.1 172.041 1002.78 173.451 1001.17 174.504C1003.53 176.158 1004.83 178.376 1005.06 181.158C1005.17 181.76 1005.23 182.342 1005.23 182.906C1005.38 184.072 1005.53 184.918 1005.68 185.444C1005.83 185.933 1006.17 186.309 1006.69 186.572ZM995.132 171.909C995.809 171.909 996.467 171.59 997.106 170.951C997.745 170.312 998.271 169.466 998.685 168.413C999.098 167.323 999.305 166.157 999.305 164.917C999.305 163.864 999.098 162.905 998.685 162.041C998.271 161.138 997.745 160.424 997.106 159.898C996.467 159.371 995.809 159.108 995.132 159.108H982.782V171.909H995.132Z" fill="white"/>
<path d="M1038.42 188.658C1038.42 189.636 1038.06 190.463 1037.34 191.14C1036.63 191.779 1035.8 192.098 1034.86 192.098C1033.85 192.098 1033 191.779 1032.32 191.14C1031.69 190.463 1031.37 189.636 1031.37 188.658V156.063C1031.37 155.085 1031.7 154.277 1032.38 153.638C1033.06 152.961 1033.92 152.623 1034.98 152.623C1035.92 152.623 1036.72 152.961 1037.4 153.638C1038.08 154.277 1038.42 155.085 1038.42 156.063V188.658Z" fill="white"/>
<path d="M1098.05 152.567C1098.99 152.567 1099.79 152.905 1100.47 153.582C1101.18 154.221 1101.54 155.029 1101.54 156.006V188.658C1101.54 189.636 1101.22 190.463 1100.58 191.14C1099.94 191.779 1099.1 192.098 1098.05 192.098C1096.99 192.098 1096.13 191.779 1095.45 191.14C1094.81 190.5 1094.49 189.673 1094.49 188.658V165.932L1085.19 180.143C1084.81 180.594 1084.38 180.97 1083.89 181.271C1083.4 181.534 1082.89 181.647 1082.37 181.609C1081.88 181.647 1081.39 181.534 1080.9 181.271C1080.41 180.97 1079.98 180.594 1079.6 180.143L1070.3 165.424V188.658C1070.3 189.673 1070 190.5 1069.4 191.14C1068.8 191.779 1068.01 192.098 1067.03 192.098C1066.09 192.098 1065.32 191.779 1064.72 191.14C1064.12 190.463 1063.81 189.636 1063.81 188.658V156.006C1063.81 155.067 1064.15 154.258 1064.83 153.582C1065.54 152.905 1066.39 152.567 1067.37 152.567C1067.93 152.567 1068.49 152.717 1069.06 153.018C1069.62 153.281 1070.06 153.638 1070.36 154.089L1082.65 172.981L1095.28 154.089C1095.58 153.638 1095.98 153.281 1096.47 153.018C1096.99 152.717 1097.52 152.567 1098.05 152.567Z" fill="white"/>
<path d="M1149.27 185.613C1150.25 185.613 1151.06 185.951 1151.69 186.628C1152.37 187.267 1152.71 188.019 1152.71 188.884C1152.71 189.824 1152.37 190.594 1151.69 191.196C1151.06 191.798 1150.25 192.098 1149.27 192.098H1130.38C1129.4 192.098 1128.57 191.779 1127.9 191.14C1127.26 190.463 1126.94 189.636 1126.94 188.658V156.063C1126.94 155.085 1127.26 154.277 1127.9 153.638C1128.57 152.961 1129.4 152.623 1130.38 152.623H1149.27C1150.25 152.623 1151.06 152.942 1151.69 153.582C1152.37 154.183 1152.71 154.973 1152.71 155.95C1152.71 156.89 1152.39 157.661 1151.75 158.262C1151.11 158.826 1150.28 159.108 1149.27 159.108H1133.99V168.695H1146.73C1147.71 168.695 1148.52 169.015 1149.16 169.654C1149.83 170.255 1150.17 171.045 1150.17 172.022C1150.17 172.962 1149.85 173.733 1149.21 174.334C1148.57 174.898 1147.75 175.18 1146.73 175.18H1133.99V185.613H1149.27Z" fill="white"/>
<path d="M1206.07 152.623C1206.97 152.623 1207.71 152.924 1208.27 153.525C1208.84 154.127 1209.12 154.879 1209.12 155.781V188.658C1209.12 189.636 1208.78 190.463 1208.1 191.14C1207.46 191.779 1206.66 192.098 1205.68 192.098C1205.15 192.098 1204.63 192.023 1204.1 191.873C1203.61 191.685 1203.25 191.44 1203.03 191.14L1182.33 164.86V188.94C1182.33 189.843 1182.03 190.594 1181.43 191.196C1180.86 191.798 1180.11 192.098 1179.17 192.098C1178.27 192.098 1177.54 191.798 1176.97 191.196C1176.41 190.594 1176.13 189.843 1176.13 188.94V156.063C1176.13 155.085 1176.45 154.277 1177.09 153.638C1177.76 152.961 1178.59 152.623 1179.57 152.623C1180.13 152.623 1180.68 152.736 1181.2 152.961C1181.77 153.187 1182.18 153.488 1182.44 153.864L1202.97 180.03V155.781C1202.97 154.879 1203.25 154.127 1203.82 153.525C1204.42 152.924 1205.17 152.623 1206.07 152.623Z" fill="white"/>
<path d="M1260.46 152.623C1261.47 152.623 1262.3 152.924 1262.94 153.525C1263.58 154.127 1263.9 154.916 1263.9 155.894C1263.9 156.871 1263.58 157.661 1262.94 158.262C1262.3 158.826 1261.47 159.108 1260.46 159.108H1251.6V188.658C1251.6 189.636 1251.24 190.463 1250.53 191.14C1249.82 191.779 1248.93 192.098 1247.88 192.098C1246.83 192.098 1245.96 191.779 1245.29 191.14C1244.61 190.463 1244.27 189.636 1244.27 188.658V159.108H1235.42C1234.4 159.108 1233.57 158.807 1232.94 158.206C1232.3 157.604 1231.98 156.815 1231.98 155.837C1231.98 154.897 1232.3 154.127 1232.94 153.525C1233.61 152.924 1234.44 152.623 1235.42 152.623H1260.46Z" fill="white"/>
</svg>
