<svg width="1562" height="194" viewBox="0 0 1562 194" fill="none" xmlns="http://www.w3.org/2000/svg">
<mask id="path-1-outside-1" maskUnits="userSpaceOnUse" x="0.869141" y="0.950806" width="1561" height="110" fill="black">
<rect fill="white" x="0.869141" y="0.950806" width="1561" height="110"/>
<path d="M89.4291 8.30425C90.5119 8.30425 91.4142 8.71028 92.136 9.52235C92.9481 10.2442 93.3541 11.1916 93.3541 12.3646V98.9849C93.3541 100.158 92.9481 101.15 92.136 101.962C91.324 102.684 90.3314 103.045 89.1584 103.045C87.8952 103.045 86.8576 102.684 86.0455 101.962C85.2335 101.15 84.8274 100.158 84.8274 98.9849V24.5456L53.0215 72.7281C52.1192 73.9011 51.0816 74.4425 49.9086 74.3522H49.6379C48.5552 74.3522 47.5627 73.8109 46.6604 72.7281L14.8545 24.2749V98.9849C14.8545 100.158 14.4484 101.15 13.6364 101.962C12.9145 102.684 11.9671 103.045 10.7941 103.045C9.62114 103.045 8.67373 102.684 7.9519 101.962C7.23006 101.15 6.86914 100.158 6.86914 98.9849V12.3646C6.86914 11.2818 7.23006 10.3344 7.9519 9.52235C8.76396 8.71028 9.75649 8.30425 10.9295 8.30425C11.5611 8.30425 12.2378 8.48471 12.9596 8.84563C13.6815 9.11632 14.2228 9.52235 14.5838 10.0637L50.044 63.254L85.7748 10.0637C86.7674 8.71028 87.9855 8.12379 89.4291 8.30425Z"/>
<path d="M196.642 8.30425C197.815 8.30425 198.762 8.71028 199.484 9.52235C200.296 10.2442 200.702 11.1916 200.702 12.3646V68.3971C200.702 74.9839 199.123 81.0292 195.965 86.5332C192.807 92.0372 188.521 96.3682 183.107 99.5263C177.694 102.684 171.739 104.263 165.242 104.263C158.655 104.263 152.655 102.684 147.241 99.5263C141.827 96.3682 137.542 92.0372 134.384 86.5332C131.225 81.0292 129.646 74.9839 129.646 68.3971V12.3646C129.646 11.1916 130.007 10.2442 130.729 9.52235C131.541 8.71028 132.624 8.30425 133.977 8.30425C135.06 8.30425 136.008 8.71028 136.82 9.52235C137.632 10.2442 138.038 11.1916 138.038 12.3646V68.3971C138.038 73.45 139.256 78.0968 141.692 82.3376C144.128 86.5783 147.422 89.962 151.572 92.4884C155.813 94.9246 160.37 96.1427 165.242 96.1427C170.205 96.1427 174.761 94.9246 178.912 92.4884C183.153 89.962 186.491 86.5783 188.927 82.3376C191.454 78.0968 192.717 73.45 192.717 68.3971V12.3646C192.717 11.1916 193.078 10.2442 193.8 9.52235C194.522 8.71028 195.469 8.30425 196.642 8.30425Z"/>
<path d="M261.218 104.399C254.721 104.399 248.947 103.316 243.894 101.15C238.931 98.9849 234.104 95.6013 229.412 90.9996C228.329 90.0973 227.788 89.0145 227.788 87.7513C227.788 86.6686 228.194 85.6761 229.006 84.7738C229.908 83.8715 230.901 83.4203 231.984 83.4203C233.066 83.4203 234.059 83.8715 234.961 84.7738C241.999 92.5335 250.797 96.4134 261.353 96.4134C267.85 96.4134 273.219 94.8795 277.459 91.8117C281.79 88.7439 283.956 84.7286 283.956 79.766C283.956 75.8862 282.873 72.683 280.708 70.1566C278.632 67.5399 275.88 65.4195 272.452 63.7954C269.023 62.1713 264.647 60.502 259.323 58.7877C253.549 57.0733 248.676 55.1785 244.706 53.1032C240.826 51.0279 237.668 48.2759 235.232 44.8472C232.796 41.3283 231.578 36.907 231.578 31.5835C231.578 26.8013 232.841 22.5605 235.367 18.8611C237.984 15.1617 241.593 12.2743 246.195 10.1991C250.887 8.03356 256.255 6.95081 262.301 6.95081C267.805 6.95081 272.948 7.89822 277.73 9.79304C282.602 11.5976 286.482 14.2143 289.37 17.643C290.723 19.1769 291.4 20.4852 291.4 21.568C291.4 22.5605 290.949 23.5079 290.046 24.4102C289.144 25.2223 288.152 25.6283 287.069 25.6283C286.166 25.6283 285.4 25.3125 284.768 24.6809C282.332 21.7936 279.083 19.4476 275.023 17.643C270.963 15.8384 266.722 14.9361 262.301 14.9361C255.714 14.9361 250.345 16.4249 246.195 19.4025C242.044 22.2898 239.969 26.2599 239.969 31.3128C239.969 36.5461 241.954 40.5613 245.924 43.3584C249.894 46.1555 255.579 48.7271 262.977 51.073C269.384 52.9679 274.617 54.9078 278.677 56.8928C282.738 58.8779 286.031 61.7201 288.558 65.4195C291.174 69.0287 292.483 73.8109 292.483 79.766C292.483 84.3677 291.129 88.5634 288.422 92.353C285.806 96.0525 282.106 98.9849 277.324 101.15C272.632 103.316 267.263 104.399 261.218 104.399Z"/>
<path d="M330.991 98.8496C330.901 100.023 330.45 101.015 329.638 101.827C328.826 102.639 327.833 103.045 326.66 103.045C325.397 103.045 324.359 102.684 323.547 101.962C322.825 101.15 322.464 100.113 322.464 98.8496V12.4999C322.464 11.2367 322.87 10.2442 323.683 9.52235C324.495 8.71028 325.532 8.30425 326.795 8.30425C327.968 8.30425 328.961 8.71028 329.773 9.52235C330.585 10.3344 330.991 11.3269 330.991 12.4999V98.8496Z"/>
<path d="M436.289 15.3422C437.642 16.1542 438.319 17.2821 438.319 18.7258C438.319 19.5378 438.003 20.4401 437.372 21.4326C436.56 22.4252 435.522 22.9214 434.259 22.9214C433.537 22.9214 432.815 22.6959 432.093 22.2447C424.875 17.4625 416.98 15.0715 408.408 15.0715C401.1 15.0715 394.468 16.7858 388.512 20.2145C382.648 23.6433 378.001 28.4705 374.572 34.6964C371.234 40.832 369.564 47.8248 369.564 55.6747C369.564 63.7052 371.279 70.8333 374.707 77.0591C378.136 83.1947 382.783 87.9769 388.648 91.4056C394.603 94.7441 401.19 96.4134 408.408 96.4134C416.98 96.4134 424.83 94.0674 431.958 89.3755C432.68 88.9243 433.447 88.6987 434.259 88.6987C435.522 88.6987 436.56 89.2401 437.372 90.3229C438.003 91.0447 438.319 91.9019 438.319 92.8944C438.319 94.3381 437.688 95.4208 436.424 96.1427C432.905 98.4886 428.574 100.474 423.431 102.098C418.288 103.632 413.281 104.399 408.408 104.399C399.836 104.399 391.896 102.369 384.587 98.3082C377.369 94.1576 371.594 88.3829 367.263 80.9841C363.023 73.5853 360.902 65.1488 360.902 55.6747C360.902 46.5616 363.023 38.3056 367.263 30.9067C371.504 23.4177 377.234 17.5979 384.452 13.4473C391.671 9.20654 399.656 7.08615 408.408 7.08615C413.461 7.08615 418.378 7.80799 423.161 9.25166C428.033 10.6953 432.409 12.7255 436.289 15.3422Z"/>
<path d="M537.029 97.6315C537.209 98.3533 537.299 98.8947 537.299 99.2556C537.299 100.429 536.893 101.376 536.081 102.098C535.269 102.82 534.322 103.181 533.239 103.181C532.337 103.181 531.524 102.955 530.803 102.504C530.171 101.962 529.675 101.286 529.314 100.474L519.163 75.7057H475.176L465.161 100.474C464.439 102.278 463.221 103.181 461.506 103.181C460.243 103.181 459.296 102.865 458.664 102.233C458.033 101.602 457.672 100.744 457.581 99.6616V99.2556C457.581 98.7142 457.627 98.3082 457.717 98.0375L493.448 10.6051C494.169 8.80051 495.523 7.89822 497.508 7.89822C498.41 7.89822 499.177 8.16891 499.809 8.71028C500.531 9.16143 501.072 9.79304 501.433 10.6051L537.029 97.6315ZM515.915 67.7204L496.967 21.4326L478.289 67.7204H515.915Z"/>
<path d="M617.215 95.0599C618.388 95.0599 619.335 95.4208 620.057 96.1427C620.869 96.8645 621.275 97.8119 621.275 98.9849C621.275 100.158 620.869 101.15 620.057 101.962C619.335 102.684 618.388 103.045 617.215 103.045H568.897C567.724 103.045 566.731 102.684 565.919 101.962C565.197 101.15 564.836 100.158 564.836 98.9849V12.3646C564.836 11.1916 565.242 10.2442 566.055 9.52235C566.867 8.71028 567.904 8.30425 569.167 8.30425C570.34 8.30425 571.333 8.71028 572.145 9.52235C572.957 10.2442 573.363 11.1916 573.363 12.3646V95.0599H617.215Z"/>
<path d="M749.265 95.0599C750.438 95.0599 751.386 95.466 752.107 96.278C752.919 97.0901 753.326 98.0375 753.326 99.1203C753.326 100.293 752.919 101.241 752.107 101.962C751.386 102.684 750.438 103.045 749.265 103.045H699.594C698.421 103.045 697.428 102.684 696.616 101.962C695.894 101.15 695.534 100.158 695.534 98.9849V12.3646C695.534 11.1916 695.894 10.2442 696.616 9.52235C697.428 8.71028 698.421 8.30425 699.594 8.30425H749.265C750.438 8.30425 751.386 8.71028 752.107 9.52235C752.919 10.2442 753.326 11.1916 753.326 12.3646C753.326 13.5376 752.919 14.485 752.107 15.2068C751.386 15.9286 750.438 16.2896 749.265 16.2896H704.06V50.261H743.175C744.348 50.261 745.295 50.667 746.017 51.4791C746.829 52.2009 747.235 53.1483 747.235 54.3213C747.235 55.4943 746.829 56.4417 746.017 57.1635C745.295 57.8854 744.348 58.2463 743.175 58.2463H704.06V95.0599H749.265Z"/>
<path d="M847.032 96.9547C847.664 97.857 847.98 98.6691 847.98 99.3909C847.98 100.654 847.529 101.692 846.626 102.504C845.814 103.226 844.867 103.587 843.784 103.587C842.431 103.587 841.348 103 840.536 101.827L811.302 62.1713L782.202 101.692C781.39 102.955 780.308 103.587 778.954 103.587C777.872 103.587 776.969 103.226 776.247 102.504C775.616 101.692 775.3 100.835 775.3 99.9323C775.3 99.03 775.616 98.1277 776.247 97.2254L806.7 55.8101L776.112 14.3947C775.48 13.6729 775.165 12.8608 775.165 11.9585C775.165 10.8758 775.571 9.92838 776.383 9.11632C777.285 8.30425 778.278 7.89822 779.36 7.89822C780.714 7.89822 781.842 8.43959 782.744 9.52235L811.843 49.1782L840.807 9.65769C841.799 8.48471 842.882 7.89822 844.055 7.89822C845.138 7.89822 846.04 8.25914 846.762 8.98097C847.574 9.61258 847.98 10.4246 847.98 11.4172C847.98 12.139 847.664 12.9962 847.032 13.9887L816.58 55.5394L847.032 96.9547Z"/>
<path d="M912.329 8.30425C917.291 8.30425 921.758 9.47723 925.728 11.8232C929.698 14.0789 932.766 17.2821 934.931 21.4326C937.187 25.493 938.315 30.0947 938.315 35.2378C938.315 40.3808 937.187 45.0728 934.931 49.3136C932.766 53.5544 929.698 56.8928 925.728 59.329C921.758 61.7652 917.291 62.9833 912.329 62.9833H884.312V98.9849C884.312 100.158 883.906 101.15 883.094 101.962C882.372 102.684 881.425 103.045 880.252 103.045C879.079 103.045 878.086 102.684 877.274 101.962C876.553 101.15 876.192 100.158 876.192 98.9849V12.3646C876.192 11.1916 876.553 10.2442 877.274 9.52235C878.086 8.71028 879.079 8.30425 880.252 8.30425H912.329ZM912.329 55.1334C917.562 55.1334 921.803 53.2385 925.051 49.4489C928.299 45.6593 929.923 40.9222 929.923 35.2378C929.923 29.6435 928.299 25.0869 925.051 21.568C921.803 18.049 917.562 16.2896 912.329 16.2896H884.312V55.1334H912.329Z"/>
<path d="M1021.38 95.0599C1022.55 95.0599 1023.5 95.466 1024.22 96.278C1025.03 97.0901 1025.44 98.0375 1025.44 99.1203C1025.44 100.293 1025.03 101.241 1024.22 101.962C1023.5 102.684 1022.55 103.045 1021.38 103.045H971.705C970.532 103.045 969.539 102.684 968.727 101.962C968.005 101.15 967.644 100.158 967.644 98.9849V12.3646C967.644 11.1916 968.005 10.2442 968.727 9.52235C969.539 8.71028 970.532 8.30425 971.705 8.30425H1021.38C1022.55 8.30425 1023.5 8.71028 1024.22 9.52235C1025.03 10.2442 1025.44 11.1916 1025.44 12.3646C1025.44 13.5376 1025.03 14.485 1024.22 15.2068C1023.5 15.9286 1022.55 16.2896 1021.38 16.2896H976.171V50.261H1015.29C1016.46 50.261 1017.41 50.667 1018.13 51.4791C1018.94 52.2009 1019.35 53.1483 1019.35 54.3213C1019.35 55.4943 1018.94 56.4417 1018.13 57.1635C1017.41 57.8854 1016.46 58.2463 1015.29 58.2463H976.171V95.0599H1021.38Z"/>
<path d="M1124.56 95.7366C1125.91 96.6389 1126.59 97.7668 1126.59 99.1203C1126.59 99.5714 1126.41 100.158 1126.05 100.88C1125.68 101.511 1125.19 102.008 1124.56 102.369C1123.93 102.729 1123.25 102.91 1122.53 102.91C1121.62 102.91 1120.86 102.729 1120.23 102.369C1117.7 100.925 1115.67 98.5789 1114.14 95.3306C1112.6 92.0824 1111.83 86.8942 1111.83 79.766C1111.83 73.45 1110.08 69.0287 1106.56 66.5023C1103.04 63.8856 1098.84 62.5773 1093.97 62.5773H1063.92V98.9849C1063.92 100.158 1063.56 101.15 1062.84 101.962C1062.12 102.684 1061.17 103.045 1060 103.045C1058.73 103.045 1057.65 102.684 1056.75 101.962C1055.85 101.15 1055.4 100.158 1055.4 98.9849V12.3646C1055.4 11.1916 1055.76 10.2442 1056.48 9.52235C1057.29 8.71028 1058.28 8.30425 1059.46 8.30425H1096C1101.14 8.30425 1105.74 9.43212 1109.8 11.6879C1113.86 13.8534 1117.02 16.8761 1119.28 20.7559C1121.62 24.6358 1122.8 29.0119 1122.8 33.8843C1122.8 39.659 1121.26 44.757 1118.2 49.1782C1115.22 53.5092 1111.29 56.4868 1106.42 58.1109C1110.39 59.6448 1113.64 62.2615 1116.17 65.9609C1118.69 69.5701 1120 73.9913 1120.09 79.2246C1120.18 84.8189 1120.54 88.7439 1121.17 90.9996C1121.9 93.2553 1123.02 94.8344 1124.56 95.7366ZM1096.41 55.1334C1099.56 54.8627 1102.5 53.825 1105.2 52.0204C1107.91 50.2159 1110.08 47.7797 1111.7 44.7119C1113.32 41.6441 1114.14 38.1251 1114.14 34.155C1114.14 29.0119 1112.38 24.7711 1108.86 21.4326C1105.43 18.0039 1100.92 16.2896 1095.32 16.2896H1063.92V55.1334H1096.41Z"/>
<path d="M1165.42 98.8496C1165.33 100.023 1164.88 101.015 1164.07 101.827C1163.25 102.639 1162.26 103.045 1161.09 103.045C1159.83 103.045 1158.79 102.684 1157.98 101.962C1157.25 101.15 1156.89 100.113 1156.89 98.8496V12.4999C1156.89 11.2367 1157.3 10.2442 1158.11 9.52235C1158.92 8.71028 1159.96 8.30425 1161.22 8.30425C1162.4 8.30425 1163.39 8.71028 1164.2 9.52235C1165.01 10.3344 1165.42 11.3269 1165.42 12.4999V98.8496Z"/>
<path d="M1255.29 95.0599C1256.46 95.0599 1257.41 95.466 1258.13 96.278C1258.94 97.0901 1259.35 98.0375 1259.35 99.1203C1259.35 100.293 1258.94 101.241 1258.13 101.962C1257.41 102.684 1256.46 103.045 1255.29 103.045H1205.62C1204.44 103.045 1203.45 102.684 1202.64 101.962C1201.92 101.15 1201.56 100.158 1201.56 98.9849V12.3646C1201.56 11.1916 1201.92 10.2442 1202.64 9.52235C1203.45 8.71028 1204.44 8.30425 1205.62 8.30425H1255.29C1256.46 8.30425 1257.41 8.71028 1258.13 9.52235C1258.94 10.2442 1259.35 11.1916 1259.35 12.3646C1259.35 13.5376 1258.94 14.485 1258.13 15.2068C1257.41 15.9286 1256.46 16.2896 1255.29 16.2896H1210.08V50.261H1249.2C1250.37 50.261 1251.32 50.667 1252.04 51.4791C1252.85 52.2009 1253.26 53.1483 1253.26 54.3213C1253.26 55.4943 1252.85 56.4417 1252.04 57.1635C1251.32 57.8854 1250.37 58.2463 1249.2 58.2463H1210.08V95.0599H1255.29Z"/>
<path d="M1358.61 8.30425C1359.78 8.30425 1360.68 8.66517 1361.31 9.387C1362.03 10.1088 1362.39 11.0111 1362.39 12.0939V98.7142C1362.39 100.068 1361.99 101.15 1361.18 101.962C1360.36 102.684 1359.37 103.045 1358.2 103.045C1357.57 103.045 1356.94 102.91 1356.3 102.639C1355.76 102.369 1355.31 102.053 1354.95 101.692L1296.89 23.4628V99.3909C1296.89 100.383 1296.48 101.241 1295.67 101.962C1294.95 102.684 1294.09 103.045 1293.1 103.045C1292.02 103.045 1291.11 102.684 1290.39 101.962C1289.67 101.241 1289.31 100.383 1289.31 99.3909V12.3646C1289.31 11.1014 1289.67 10.1088 1290.39 9.387C1291.2 8.66517 1292.15 8.30425 1293.23 8.30425C1294.68 8.30425 1295.76 8.80051 1296.48 9.79304L1354.82 88.4281V12.0939C1354.82 11.0111 1355.18 10.1088 1355.9 9.387C1356.62 8.66517 1357.52 8.30425 1358.61 8.30425Z"/>
<path d="M1467.77 15.3422C1469.12 16.1542 1469.8 17.2821 1469.8 18.7258C1469.8 19.5378 1469.48 20.4401 1468.85 21.4326C1468.04 22.4252 1467 22.9214 1465.74 22.9214C1465.01 22.9214 1464.29 22.6959 1463.57 22.2447C1456.35 17.4625 1448.46 15.0715 1439.88 15.0715C1432.58 15.0715 1425.94 16.7858 1419.99 20.2145C1414.12 23.6433 1409.48 28.4705 1406.05 34.6964C1402.71 40.832 1401.04 47.8248 1401.04 55.6747C1401.04 63.7052 1402.76 70.8333 1406.18 77.0591C1409.61 83.1947 1414.26 87.9769 1420.12 91.4056C1426.08 94.7441 1432.67 96.4134 1439.88 96.4134C1448.46 96.4134 1456.31 94.0674 1463.43 89.3755C1464.16 88.9243 1464.92 88.6987 1465.74 88.6987C1467 88.6987 1468.04 89.2401 1468.85 90.3229C1469.48 91.0447 1469.8 91.9019 1469.8 92.8944C1469.8 94.3381 1469.16 95.4208 1467.9 96.1427C1464.38 98.4886 1460.05 100.474 1454.91 102.098C1449.76 103.632 1444.76 104.399 1439.88 104.399C1431.31 104.399 1423.37 102.369 1416.06 98.3082C1408.85 94.1576 1403.07 88.3829 1398.74 80.9841C1394.5 73.5853 1392.38 65.1488 1392.38 55.6747C1392.38 46.5616 1394.5 38.3056 1398.74 30.9067C1402.98 23.4177 1408.71 17.5979 1415.93 13.4473C1423.15 9.20654 1431.13 7.08615 1439.88 7.08615C1444.94 7.08615 1449.85 7.80799 1454.64 9.25166C1459.51 10.6953 1463.89 12.7255 1467.77 15.3422Z"/>
<path d="M1551.59 95.0599C1552.76 95.0599 1553.71 95.466 1554.43 96.278C1555.24 97.0901 1555.65 98.0375 1555.65 99.1203C1555.65 100.293 1555.24 101.241 1554.43 101.962C1553.71 102.684 1552.76 103.045 1551.59 103.045H1501.92C1500.74 103.045 1499.75 102.684 1498.94 101.962C1498.22 101.15 1497.86 100.158 1497.86 98.9849V12.3646C1497.86 11.1916 1498.22 10.2442 1498.94 9.52235C1499.75 8.71028 1500.74 8.30425 1501.92 8.30425H1551.59C1552.76 8.30425 1553.71 8.71028 1554.43 9.52235C1555.24 10.2442 1555.65 11.1916 1555.65 12.3646C1555.65 13.5376 1555.24 14.485 1554.43 15.2068C1553.71 15.9286 1552.76 16.2896 1551.59 16.2896H1506.38V50.261H1545.5C1546.67 50.261 1547.62 50.667 1548.34 51.4791C1549.15 52.2009 1549.56 53.1483 1549.56 54.3213C1549.56 55.4943 1549.15 56.4417 1548.34 57.1635C1547.62 57.8854 1546.67 58.2463 1545.5 58.2463H1506.38V95.0599H1551.59Z"/>
</mask>
<path d="M89.4291 8.30425C90.5119 8.30425 91.4142 8.71028 92.136 9.52235C92.9481 10.2442 93.3541 11.1916 93.3541 12.3646V98.9849C93.3541 100.158 92.9481 101.15 92.136 101.962C91.324 102.684 90.3314 103.045 89.1584 103.045C87.8952 103.045 86.8576 102.684 86.0455 101.962C85.2335 101.15 84.8274 100.158 84.8274 98.9849V24.5456L53.0215 72.7281C52.1192 73.9011 51.0816 74.4425 49.9086 74.3522H49.6379C48.5552 74.3522 47.5627 73.8109 46.6604 72.7281L14.8545 24.2749V98.9849C14.8545 100.158 14.4484 101.15 13.6364 101.962C12.9145 102.684 11.9671 103.045 10.7941 103.045C9.62114 103.045 8.67373 102.684 7.9519 101.962C7.23006 101.15 6.86914 100.158 6.86914 98.9849V12.3646C6.86914 11.2818 7.23006 10.3344 7.9519 9.52235C8.76396 8.71028 9.75649 8.30425 10.9295 8.30425C11.5611 8.30425 12.2378 8.48471 12.9596 8.84563C13.6815 9.11632 14.2228 9.52235 14.5838 10.0637L50.044 63.254L85.7748 10.0637C86.7674 8.71028 87.9855 8.12379 89.4291 8.30425Z" stroke="url(#paint0_linear)" stroke-width="12" mask="url(#path-1-outside-1)"/>
<path d="M196.642 8.30425C197.815 8.30425 198.762 8.71028 199.484 9.52235C200.296 10.2442 200.702 11.1916 200.702 12.3646V68.3971C200.702 74.9839 199.123 81.0292 195.965 86.5332C192.807 92.0372 188.521 96.3682 183.107 99.5263C177.694 102.684 171.739 104.263 165.242 104.263C158.655 104.263 152.655 102.684 147.241 99.5263C141.827 96.3682 137.542 92.0372 134.384 86.5332C131.225 81.0292 129.646 74.9839 129.646 68.3971V12.3646C129.646 11.1916 130.007 10.2442 130.729 9.52235C131.541 8.71028 132.624 8.30425 133.977 8.30425C135.06 8.30425 136.008 8.71028 136.82 9.52235C137.632 10.2442 138.038 11.1916 138.038 12.3646V68.3971C138.038 73.45 139.256 78.0968 141.692 82.3376C144.128 86.5783 147.422 89.962 151.572 92.4884C155.813 94.9246 160.37 96.1427 165.242 96.1427C170.205 96.1427 174.761 94.9246 178.912 92.4884C183.153 89.962 186.491 86.5783 188.927 82.3376C191.454 78.0968 192.717 73.45 192.717 68.3971V12.3646C192.717 11.1916 193.078 10.2442 193.8 9.52235C194.522 8.71028 195.469 8.30425 196.642 8.30425Z" stroke="url(#paint1_linear)" stroke-width="12" mask="url(#path-1-outside-1)"/>
<path d="M261.218 104.399C254.721 104.399 248.947 103.316 243.894 101.15C238.931 98.9849 234.104 95.6013 229.412 90.9996C228.329 90.0973 227.788 89.0145 227.788 87.7513C227.788 86.6686 228.194 85.6761 229.006 84.7738C229.908 83.8715 230.901 83.4203 231.984 83.4203C233.066 83.4203 234.059 83.8715 234.961 84.7738C241.999 92.5335 250.797 96.4134 261.353 96.4134C267.85 96.4134 273.219 94.8795 277.459 91.8117C281.79 88.7439 283.956 84.7286 283.956 79.766C283.956 75.8862 282.873 72.683 280.708 70.1566C278.632 67.5399 275.88 65.4195 272.452 63.7954C269.023 62.1713 264.647 60.502 259.323 58.7877C253.549 57.0733 248.676 55.1785 244.706 53.1032C240.826 51.0279 237.668 48.2759 235.232 44.8472C232.796 41.3283 231.578 36.907 231.578 31.5835C231.578 26.8013 232.841 22.5605 235.367 18.8611C237.984 15.1617 241.593 12.2743 246.195 10.1991C250.887 8.03356 256.255 6.95081 262.301 6.95081C267.805 6.95081 272.948 7.89822 277.73 9.79304C282.602 11.5976 286.482 14.2143 289.37 17.643C290.723 19.1769 291.4 20.4852 291.4 21.568C291.4 22.5605 290.949 23.5079 290.046 24.4102C289.144 25.2223 288.152 25.6283 287.069 25.6283C286.166 25.6283 285.4 25.3125 284.768 24.6809C282.332 21.7936 279.083 19.4476 275.023 17.643C270.963 15.8384 266.722 14.9361 262.301 14.9361C255.714 14.9361 250.345 16.4249 246.195 19.4025C242.044 22.2898 239.969 26.2599 239.969 31.3128C239.969 36.5461 241.954 40.5613 245.924 43.3584C249.894 46.1555 255.579 48.7271 262.977 51.073C269.384 52.9679 274.617 54.9078 278.677 56.8928C282.738 58.8779 286.031 61.7201 288.558 65.4195C291.174 69.0287 292.483 73.8109 292.483 79.766C292.483 84.3677 291.129 88.5634 288.422 92.353C285.806 96.0525 282.106 98.9849 277.324 101.15C272.632 103.316 267.263 104.399 261.218 104.399Z" stroke="url(#paint2_linear)" stroke-width="12" mask="url(#path-1-outside-1)"/>
<path d="M330.991 98.8496C330.901 100.023 330.45 101.015 329.638 101.827C328.826 102.639 327.833 103.045 326.66 103.045C325.397 103.045 324.359 102.684 323.547 101.962C322.825 101.15 322.464 100.113 322.464 98.8496V12.4999C322.464 11.2367 322.87 10.2442 323.683 9.52235C324.495 8.71028 325.532 8.30425 326.795 8.30425C327.968 8.30425 328.961 8.71028 329.773 9.52235C330.585 10.3344 330.991 11.3269 330.991 12.4999V98.8496Z" stroke="url(#paint3_linear)" stroke-width="12" mask="url(#path-1-outside-1)"/>
<path d="M436.289 15.3422C437.642 16.1542 438.319 17.2821 438.319 18.7258C438.319 19.5378 438.003 20.4401 437.372 21.4326C436.56 22.4252 435.522 22.9214 434.259 22.9214C433.537 22.9214 432.815 22.6959 432.093 22.2447C424.875 17.4625 416.98 15.0715 408.408 15.0715C401.1 15.0715 394.468 16.7858 388.512 20.2145C382.648 23.6433 378.001 28.4705 374.572 34.6964C371.234 40.832 369.564 47.8248 369.564 55.6747C369.564 63.7052 371.279 70.8333 374.707 77.0591C378.136 83.1947 382.783 87.9769 388.648 91.4056C394.603 94.7441 401.19 96.4134 408.408 96.4134C416.98 96.4134 424.83 94.0674 431.958 89.3755C432.68 88.9243 433.447 88.6987 434.259 88.6987C435.522 88.6987 436.56 89.2401 437.372 90.3229C438.003 91.0447 438.319 91.9019 438.319 92.8944C438.319 94.3381 437.688 95.4208 436.424 96.1427C432.905 98.4886 428.574 100.474 423.431 102.098C418.288 103.632 413.281 104.399 408.408 104.399C399.836 104.399 391.896 102.369 384.587 98.3082C377.369 94.1576 371.594 88.3829 367.263 80.9841C363.023 73.5853 360.902 65.1488 360.902 55.6747C360.902 46.5616 363.023 38.3056 367.263 30.9067C371.504 23.4177 377.234 17.5979 384.452 13.4473C391.671 9.20654 399.656 7.08615 408.408 7.08615C413.461 7.08615 418.378 7.80799 423.161 9.25166C428.033 10.6953 432.409 12.7255 436.289 15.3422Z" stroke="url(#paint4_linear)" stroke-width="12" mask="url(#path-1-outside-1)"/>
<path d="M537.029 97.6315C537.209 98.3533 537.299 98.8947 537.299 99.2556C537.299 100.429 536.893 101.376 536.081 102.098C535.269 102.82 534.322 103.181 533.239 103.181C532.337 103.181 531.524 102.955 530.803 102.504C530.171 101.962 529.675 101.286 529.314 100.474L519.163 75.7057H475.176L465.161 100.474C464.439 102.278 463.221 103.181 461.506 103.181C460.243 103.181 459.296 102.865 458.664 102.233C458.033 101.602 457.672 100.744 457.581 99.6616V99.2556C457.581 98.7142 457.627 98.3082 457.717 98.0375L493.448 10.6051C494.169 8.80051 495.523 7.89822 497.508 7.89822C498.41 7.89822 499.177 8.16891 499.809 8.71028C500.531 9.16143 501.072 9.79304 501.433 10.6051L537.029 97.6315ZM515.915 67.7204L496.967 21.4326L478.289 67.7204H515.915Z" stroke="url(#paint5_linear)" stroke-width="12" mask="url(#path-1-outside-1)"/>
<path d="M617.215 95.0599C618.388 95.0599 619.335 95.4208 620.057 96.1427C620.869 96.8645 621.275 97.8119 621.275 98.9849C621.275 100.158 620.869 101.15 620.057 101.962C619.335 102.684 618.388 103.045 617.215 103.045H568.897C567.724 103.045 566.731 102.684 565.919 101.962C565.197 101.15 564.836 100.158 564.836 98.9849V12.3646C564.836 11.1916 565.242 10.2442 566.055 9.52235C566.867 8.71028 567.904 8.30425 569.167 8.30425C570.34 8.30425 571.333 8.71028 572.145 9.52235C572.957 10.2442 573.363 11.1916 573.363 12.3646V95.0599H617.215Z" stroke="url(#paint6_linear)" stroke-width="12" mask="url(#path-1-outside-1)"/>
<path d="M749.265 95.0599C750.438 95.0599 751.386 95.466 752.107 96.278C752.919 97.0901 753.326 98.0375 753.326 99.1203C753.326 100.293 752.919 101.241 752.107 101.962C751.386 102.684 750.438 103.045 749.265 103.045H699.594C698.421 103.045 697.428 102.684 696.616 101.962C695.894 101.15 695.534 100.158 695.534 98.9849V12.3646C695.534 11.1916 695.894 10.2442 696.616 9.52235C697.428 8.71028 698.421 8.30425 699.594 8.30425H749.265C750.438 8.30425 751.386 8.71028 752.107 9.52235C752.919 10.2442 753.326 11.1916 753.326 12.3646C753.326 13.5376 752.919 14.485 752.107 15.2068C751.386 15.9286 750.438 16.2896 749.265 16.2896H704.06V50.261H743.175C744.348 50.261 745.295 50.667 746.017 51.4791C746.829 52.2009 747.235 53.1483 747.235 54.3213C747.235 55.4943 746.829 56.4417 746.017 57.1635C745.295 57.8854 744.348 58.2463 743.175 58.2463H704.06V95.0599H749.265Z" stroke="url(#paint7_linear)" stroke-width="12" mask="url(#path-1-outside-1)"/>
<path d="M847.032 96.9547C847.664 97.857 847.98 98.6691 847.98 99.3909C847.98 100.654 847.529 101.692 846.626 102.504C845.814 103.226 844.867 103.587 843.784 103.587C842.431 103.587 841.348 103 840.536 101.827L811.302 62.1713L782.202 101.692C781.39 102.955 780.308 103.587 778.954 103.587C777.872 103.587 776.969 103.226 776.247 102.504C775.616 101.692 775.3 100.835 775.3 99.9323C775.3 99.03 775.616 98.1277 776.247 97.2254L806.7 55.8101L776.112 14.3947C775.48 13.6729 775.165 12.8608 775.165 11.9585C775.165 10.8758 775.571 9.92838 776.383 9.11632C777.285 8.30425 778.278 7.89822 779.36 7.89822C780.714 7.89822 781.842 8.43959 782.744 9.52235L811.843 49.1782L840.807 9.65769C841.799 8.48471 842.882 7.89822 844.055 7.89822C845.138 7.89822 846.04 8.25914 846.762 8.98097C847.574 9.61258 847.98 10.4246 847.98 11.4172C847.98 12.139 847.664 12.9962 847.032 13.9887L816.58 55.5394L847.032 96.9547Z" stroke="url(#paint8_linear)" stroke-width="12" mask="url(#path-1-outside-1)"/>
<path d="M912.329 8.30425C917.291 8.30425 921.758 9.47723 925.728 11.8232C929.698 14.0789 932.766 17.2821 934.931 21.4326C937.187 25.493 938.315 30.0947 938.315 35.2378C938.315 40.3808 937.187 45.0728 934.931 49.3136C932.766 53.5544 929.698 56.8928 925.728 59.329C921.758 61.7652 917.291 62.9833 912.329 62.9833H884.312V98.9849C884.312 100.158 883.906 101.15 883.094 101.962C882.372 102.684 881.425 103.045 880.252 103.045C879.079 103.045 878.086 102.684 877.274 101.962C876.553 101.15 876.192 100.158 876.192 98.9849V12.3646C876.192 11.1916 876.553 10.2442 877.274 9.52235C878.086 8.71028 879.079 8.30425 880.252 8.30425H912.329ZM912.329 55.1334C917.562 55.1334 921.803 53.2385 925.051 49.4489C928.299 45.6593 929.923 40.9222 929.923 35.2378C929.923 29.6435 928.299 25.0869 925.051 21.568C921.803 18.049 917.562 16.2896 912.329 16.2896H884.312V55.1334H912.329Z" stroke="url(#paint9_linear)" stroke-width="12" mask="url(#path-1-outside-1)"/>
<path d="M1021.38 95.0599C1022.55 95.0599 1023.5 95.466 1024.22 96.278C1025.03 97.0901 1025.44 98.0375 1025.44 99.1203C1025.44 100.293 1025.03 101.241 1024.22 101.962C1023.5 102.684 1022.55 103.045 1021.38 103.045H971.705C970.532 103.045 969.539 102.684 968.727 101.962C968.005 101.15 967.644 100.158 967.644 98.9849V12.3646C967.644 11.1916 968.005 10.2442 968.727 9.52235C969.539 8.71028 970.532 8.30425 971.705 8.30425H1021.38C1022.55 8.30425 1023.5 8.71028 1024.22 9.52235C1025.03 10.2442 1025.44 11.1916 1025.44 12.3646C1025.44 13.5376 1025.03 14.485 1024.22 15.2068C1023.5 15.9286 1022.55 16.2896 1021.38 16.2896H976.171V50.261H1015.29C1016.46 50.261 1017.41 50.667 1018.13 51.4791C1018.94 52.2009 1019.35 53.1483 1019.35 54.3213C1019.35 55.4943 1018.94 56.4417 1018.13 57.1635C1017.41 57.8854 1016.46 58.2463 1015.29 58.2463H976.171V95.0599H1021.38Z" stroke="url(#paint10_linear)" stroke-width="12" mask="url(#path-1-outside-1)"/>
<path d="M1124.56 95.7366C1125.91 96.6389 1126.59 97.7668 1126.59 99.1203C1126.59 99.5714 1126.41 100.158 1126.05 100.88C1125.68 101.511 1125.19 102.008 1124.56 102.369C1123.93 102.729 1123.25 102.91 1122.53 102.91C1121.62 102.91 1120.86 102.729 1120.23 102.369C1117.7 100.925 1115.67 98.5789 1114.14 95.3306C1112.6 92.0824 1111.83 86.8942 1111.83 79.766C1111.83 73.45 1110.08 69.0287 1106.56 66.5023C1103.04 63.8856 1098.84 62.5773 1093.97 62.5773H1063.92V98.9849C1063.92 100.158 1063.56 101.15 1062.84 101.962C1062.12 102.684 1061.17 103.045 1060 103.045C1058.73 103.045 1057.65 102.684 1056.75 101.962C1055.85 101.15 1055.4 100.158 1055.4 98.9849V12.3646C1055.4 11.1916 1055.76 10.2442 1056.48 9.52235C1057.29 8.71028 1058.28 8.30425 1059.46 8.30425H1096C1101.14 8.30425 1105.74 9.43212 1109.8 11.6879C1113.86 13.8534 1117.02 16.8761 1119.28 20.7559C1121.62 24.6358 1122.8 29.0119 1122.8 33.8843C1122.8 39.659 1121.26 44.757 1118.2 49.1782C1115.22 53.5092 1111.29 56.4868 1106.42 58.1109C1110.39 59.6448 1113.64 62.2615 1116.17 65.9609C1118.69 69.5701 1120 73.9913 1120.09 79.2246C1120.18 84.8189 1120.54 88.7439 1121.17 90.9996C1121.9 93.2553 1123.02 94.8344 1124.56 95.7366ZM1096.41 55.1334C1099.56 54.8627 1102.5 53.825 1105.2 52.0204C1107.91 50.2159 1110.08 47.7797 1111.7 44.7119C1113.32 41.6441 1114.14 38.1251 1114.14 34.155C1114.14 29.0119 1112.38 24.7711 1108.86 21.4326C1105.43 18.0039 1100.92 16.2896 1095.32 16.2896H1063.92V55.1334H1096.41Z" stroke="url(#paint11_linear)" stroke-width="12" mask="url(#path-1-outside-1)"/>
<path d="M1165.42 98.8496C1165.33 100.023 1164.88 101.015 1164.07 101.827C1163.25 102.639 1162.26 103.045 1161.09 103.045C1159.83 103.045 1158.79 102.684 1157.98 101.962C1157.25 101.15 1156.89 100.113 1156.89 98.8496V12.4999C1156.89 11.2367 1157.3 10.2442 1158.11 9.52235C1158.92 8.71028 1159.96 8.30425 1161.22 8.30425C1162.4 8.30425 1163.39 8.71028 1164.2 9.52235C1165.01 10.3344 1165.42 11.3269 1165.42 12.4999V98.8496Z" stroke="url(#paint12_linear)" stroke-width="12" mask="url(#path-1-outside-1)"/>
<path d="M1255.29 95.0599C1256.46 95.0599 1257.41 95.466 1258.13 96.278C1258.94 97.0901 1259.35 98.0375 1259.35 99.1203C1259.35 100.293 1258.94 101.241 1258.13 101.962C1257.41 102.684 1256.46 103.045 1255.29 103.045H1205.62C1204.44 103.045 1203.45 102.684 1202.64 101.962C1201.92 101.15 1201.56 100.158 1201.56 98.9849V12.3646C1201.56 11.1916 1201.92 10.2442 1202.64 9.52235C1203.45 8.71028 1204.44 8.30425 1205.62 8.30425H1255.29C1256.46 8.30425 1257.41 8.71028 1258.13 9.52235C1258.94 10.2442 1259.35 11.1916 1259.35 12.3646C1259.35 13.5376 1258.94 14.485 1258.13 15.2068C1257.41 15.9286 1256.46 16.2896 1255.29 16.2896H1210.08V50.261H1249.2C1250.37 50.261 1251.32 50.667 1252.04 51.4791C1252.85 52.2009 1253.26 53.1483 1253.26 54.3213C1253.26 55.4943 1252.85 56.4417 1252.04 57.1635C1251.32 57.8854 1250.37 58.2463 1249.2 58.2463H1210.08V95.0599H1255.29Z" stroke="url(#paint13_linear)" stroke-width="12" mask="url(#path-1-outside-1)"/>
<path d="M1358.61 8.30425C1359.78 8.30425 1360.68 8.66517 1361.31 9.387C1362.03 10.1088 1362.39 11.0111 1362.39 12.0939V98.7142C1362.39 100.068 1361.99 101.15 1361.18 101.962C1360.36 102.684 1359.37 103.045 1358.2 103.045C1357.57 103.045 1356.94 102.91 1356.3 102.639C1355.76 102.369 1355.31 102.053 1354.95 101.692L1296.89 23.4628V99.3909C1296.89 100.383 1296.48 101.241 1295.67 101.962C1294.95 102.684 1294.09 103.045 1293.1 103.045C1292.02 103.045 1291.11 102.684 1290.39 101.962C1289.67 101.241 1289.31 100.383 1289.31 99.3909V12.3646C1289.31 11.1014 1289.67 10.1088 1290.39 9.387C1291.2 8.66517 1292.15 8.30425 1293.23 8.30425C1294.68 8.30425 1295.76 8.80051 1296.48 9.79304L1354.82 88.4281V12.0939C1354.82 11.0111 1355.18 10.1088 1355.9 9.387C1356.62 8.66517 1357.52 8.30425 1358.61 8.30425Z" stroke="url(#paint14_linear)" stroke-width="12" mask="url(#path-1-outside-1)"/>
<path d="M1467.77 15.3422C1469.12 16.1542 1469.8 17.2821 1469.8 18.7258C1469.8 19.5378 1469.48 20.4401 1468.85 21.4326C1468.04 22.4252 1467 22.9214 1465.74 22.9214C1465.01 22.9214 1464.29 22.6959 1463.57 22.2447C1456.35 17.4625 1448.46 15.0715 1439.88 15.0715C1432.58 15.0715 1425.94 16.7858 1419.99 20.2145C1414.12 23.6433 1409.48 28.4705 1406.05 34.6964C1402.71 40.832 1401.04 47.8248 1401.04 55.6747C1401.04 63.7052 1402.76 70.8333 1406.18 77.0591C1409.61 83.1947 1414.26 87.9769 1420.12 91.4056C1426.08 94.7441 1432.67 96.4134 1439.88 96.4134C1448.46 96.4134 1456.31 94.0674 1463.43 89.3755C1464.16 88.9243 1464.92 88.6987 1465.74 88.6987C1467 88.6987 1468.04 89.2401 1468.85 90.3229C1469.48 91.0447 1469.8 91.9019 1469.8 92.8944C1469.8 94.3381 1469.16 95.4208 1467.9 96.1427C1464.38 98.4886 1460.05 100.474 1454.91 102.098C1449.76 103.632 1444.76 104.399 1439.88 104.399C1431.31 104.399 1423.37 102.369 1416.06 98.3082C1408.85 94.1576 1403.07 88.3829 1398.74 80.9841C1394.5 73.5853 1392.38 65.1488 1392.38 55.6747C1392.38 46.5616 1394.5 38.3056 1398.74 30.9067C1402.98 23.4177 1408.71 17.5979 1415.93 13.4473C1423.15 9.20654 1431.13 7.08615 1439.88 7.08615C1444.94 7.08615 1449.85 7.80799 1454.64 9.25166C1459.51 10.6953 1463.89 12.7255 1467.77 15.3422Z" stroke="url(#paint15_linear)" stroke-width="12" mask="url(#path-1-outside-1)"/>
<path d="M1551.59 95.0599C1552.76 95.0599 1553.71 95.466 1554.43 96.278C1555.24 97.0901 1555.65 98.0375 1555.65 99.1203C1555.65 100.293 1555.24 101.241 1554.43 101.962C1553.71 102.684 1552.76 103.045 1551.59 103.045H1501.92C1500.74 103.045 1499.75 102.684 1498.94 101.962C1498.22 101.15 1497.86 100.158 1497.86 98.9849V12.3646C1497.86 11.1916 1498.22 10.2442 1498.94 9.52235C1499.75 8.71028 1500.74 8.30425 1501.92 8.30425H1551.59C1552.76 8.30425 1553.71 8.71028 1554.43 9.52235C1555.24 10.2442 1555.65 11.1916 1555.65 12.3646C1555.65 13.5376 1555.24 14.485 1554.43 15.2068C1553.71 15.9286 1552.76 16.2896 1551.59 16.2896H1506.38V50.261H1545.5C1546.67 50.261 1547.62 50.667 1548.34 51.4791C1549.15 52.2009 1549.56 53.1483 1549.56 54.3213C1549.56 55.4943 1549.15 56.4417 1548.34 57.1635C1547.62 57.8854 1546.67 58.2463 1545.5 58.2463H1506.38V95.0599H1551.59Z" stroke="url(#paint16_linear)" stroke-width="12" mask="url(#path-1-outside-1)"/>
<path d="M329.101 188.65C329.289 189.139 329.383 189.59 329.383 190.004C329.383 190.981 329.064 191.79 328.424 192.429C327.785 193.03 327.052 193.331 326.225 193.331C325.548 193.331 324.928 193.124 324.364 192.711C323.838 192.297 323.424 191.733 323.123 191.019L320.191 184.195H303.386L300.453 191.075C300.19 191.79 299.777 192.354 299.213 192.767C298.686 193.143 298.104 193.331 297.464 193.331C296.487 193.331 295.735 193.068 295.209 192.542C294.72 192.015 294.476 191.301 294.476 190.399C294.476 190.06 294.532 189.703 294.645 189.327L308.687 155.604C308.988 154.852 309.439 154.269 310.04 153.856C310.642 153.442 311.318 153.273 312.07 153.348C312.747 153.348 313.367 153.555 313.931 153.968C314.533 154.344 314.965 154.89 315.228 155.604L329.101 188.65ZM317.428 177.71L311.732 164.514L306.149 177.71H317.428Z" fill="url(#paint17_linear)"/>
<path d="M418.031 153.517C418.97 153.517 419.779 153.856 420.455 154.532C421.17 155.172 421.527 155.98 421.527 156.957V189.609C421.527 190.587 421.207 191.414 420.568 192.09C419.929 192.73 419.083 193.049 418.031 193.049C416.978 193.049 416.113 192.73 415.436 192.09C414.797 191.451 414.478 190.624 414.478 189.609V166.883L405.173 181.094C404.797 181.545 404.365 181.921 403.876 182.222C403.387 182.485 402.879 182.598 402.353 182.56C401.864 182.598 401.376 182.485 400.887 182.222C400.398 181.921 399.966 181.545 399.59 181.094L390.285 166.375V189.609C390.285 190.624 389.984 191.451 389.383 192.09C388.781 192.73 387.992 193.049 387.014 193.049C386.074 193.049 385.304 192.73 384.702 192.09C384.1 191.414 383.8 190.587 383.8 189.609V156.957C383.8 156.017 384.138 155.209 384.815 154.532C385.529 153.856 386.375 153.517 387.353 153.517C387.916 153.517 388.48 153.668 389.044 153.968C389.608 154.232 390.041 154.589 390.341 155.04L402.635 173.932L415.267 155.04C415.568 154.589 415.963 154.232 416.452 153.968C416.978 153.668 417.504 153.517 418.031 153.517Z" fill="url(#paint18_linear)"/>
<path d="M474.95 153.517C475.928 153.517 476.717 153.837 477.319 154.476C477.921 155.115 478.221 155.942 478.221 156.957V177.372C478.221 180.492 477.563 183.255 476.248 185.662C474.932 188.068 473.089 189.947 470.721 191.301C468.352 192.654 465.646 193.331 462.6 193.331C459.555 193.331 456.829 192.654 454.423 191.301C452.055 189.947 450.213 188.068 448.897 185.662C447.581 183.255 446.923 180.492 446.923 177.372V156.957C446.923 155.98 447.261 155.172 447.938 154.532C448.615 153.856 449.479 153.517 450.532 153.517C451.434 153.517 452.224 153.856 452.901 154.532C453.577 155.172 453.916 155.98 453.916 156.957V177.372C453.916 179.176 454.31 180.793 455.1 182.222C455.889 183.613 456.942 184.684 458.258 185.436C459.611 186.188 461.059 186.564 462.6 186.564C464.217 186.564 465.721 186.188 467.112 185.436C468.54 184.684 469.668 183.613 470.495 182.222C471.36 180.793 471.792 179.176 471.792 177.372V156.957C471.792 155.942 472.074 155.115 472.638 154.476C473.202 153.837 473.973 153.517 474.95 153.517Z" fill="url(#paint19_linear)"/>
<path d="M515.741 193.613C513.034 193.613 510.628 193.275 508.522 192.598C506.417 191.921 504.443 190.775 502.601 189.158C501.586 188.256 501.078 187.259 501.078 186.169C501.078 185.304 501.398 184.553 502.037 183.913C502.676 183.237 503.447 182.898 504.349 182.898C505.063 182.898 505.703 183.124 506.266 183.575C507.77 184.816 509.236 185.718 510.665 186.282C512.094 186.846 513.786 187.128 515.741 187.128C517.846 187.128 519.65 186.658 521.154 185.718C522.696 184.778 523.466 183.613 523.466 182.222C523.466 180.53 522.715 179.214 521.211 178.274C519.707 177.297 517.32 176.563 514.049 176.075C505.815 174.872 501.699 171.037 501.699 164.57C501.699 162.202 502.319 160.153 503.56 158.424C504.8 156.657 506.492 155.322 508.635 154.42C510.778 153.48 513.165 153.01 515.797 153.01C518.165 153.01 520.384 153.367 522.451 154.081C524.557 154.796 526.305 155.735 527.696 156.901C528.786 157.766 529.331 158.762 529.331 159.89C529.331 160.754 529.012 161.525 528.373 162.202C527.734 162.841 526.982 163.161 526.117 163.161C525.553 163.161 525.045 162.991 524.594 162.653C523.617 161.864 522.245 161.149 520.478 160.51C518.748 159.833 517.188 159.495 515.797 159.495C513.428 159.495 511.586 159.946 510.27 160.848C508.992 161.713 508.353 162.86 508.353 164.288C508.353 165.905 509.011 167.127 510.327 167.954C511.68 168.781 513.786 169.458 516.643 169.984C519.876 170.548 522.451 171.281 524.369 172.184C526.324 173.048 527.79 174.251 528.767 175.793C529.745 177.297 530.234 179.308 530.234 181.827C530.234 184.195 529.557 186.282 528.203 188.086C526.888 189.853 525.121 191.226 522.903 192.203C520.684 193.143 518.297 193.613 515.741 193.613Z" fill="url(#paint20_linear)"/>
<path d="M560.668 189.609C560.668 190.587 560.311 191.414 559.597 192.09C558.882 192.73 558.055 193.049 557.115 193.049C556.1 193.049 555.254 192.73 554.578 192.09C553.938 191.414 553.619 190.587 553.619 189.609V157.014C553.619 156.036 553.957 155.228 554.634 154.589C555.311 153.912 556.175 153.574 557.228 153.574C558.168 153.574 558.976 153.912 559.653 154.589C560.33 155.228 560.668 156.036 560.668 157.014V189.609Z" fill="url(#paint21_linear)"/>
<path d="M613.7 155.491C614.865 156.093 615.448 157.051 615.448 158.367C615.448 159.157 615.166 159.927 614.602 160.679C614.001 161.469 613.23 161.864 612.29 161.864C611.651 161.864 611.012 161.694 610.373 161.356C608.531 160.491 606.538 160.059 604.395 160.059C601.763 160.059 599.47 160.623 597.515 161.751C595.56 162.841 594.056 164.401 593.004 166.431C591.951 168.424 591.425 170.717 591.425 173.311C591.425 177.748 592.609 181.112 594.977 183.406C597.383 185.699 600.523 186.846 604.395 186.846C606.688 186.846 608.681 186.413 610.373 185.549C611.049 185.248 611.651 185.098 612.177 185.098C613.155 185.098 613.982 185.511 614.659 186.338C615.223 187.053 615.505 187.823 615.505 188.65C615.505 189.252 615.354 189.797 615.053 190.286C614.753 190.775 614.32 191.151 613.756 191.414C610.824 192.88 607.703 193.613 604.395 193.613C600.711 193.613 597.327 192.842 594.244 191.301C591.161 189.722 588.699 187.41 586.857 184.365C585.014 181.319 584.093 177.635 584.093 173.311C584.093 169.477 584.958 166.037 586.687 162.991C588.454 159.946 590.879 157.578 593.962 155.886C597.045 154.156 600.523 153.292 604.395 153.292C607.741 153.292 610.843 154.025 613.7 155.491Z" fill="url(#paint22_linear)"/>
<path d="M669.301 188.65C669.489 189.139 669.583 189.59 669.583 190.004C669.583 190.981 669.264 191.79 668.625 192.429C667.985 193.03 667.252 193.331 666.425 193.331C665.748 193.331 665.128 193.124 664.564 192.711C664.038 192.297 663.624 191.733 663.324 191.019L660.391 184.195H643.586L640.653 191.075C640.39 191.79 639.977 192.354 639.413 192.767C638.886 193.143 638.304 193.331 637.665 193.331C636.687 193.331 635.935 193.068 635.409 192.542C634.92 192.015 634.676 191.301 634.676 190.399C634.676 190.06 634.732 189.703 634.845 189.327L648.887 155.604C649.188 154.852 649.639 154.269 650.24 153.856C650.842 153.442 651.518 153.273 652.27 153.348C652.947 153.348 653.567 153.555 654.131 153.968C654.733 154.344 655.165 154.89 655.428 155.604L669.301 188.65ZM657.628 177.71L651.932 164.514L646.349 177.71H657.628Z" fill="url(#paint23_linear)"/>
<path d="M713.044 186.451C714.022 186.451 714.83 186.771 715.469 187.41C716.146 188.011 716.484 188.801 716.484 189.778C716.484 190.718 716.146 191.508 715.469 192.147C714.83 192.748 714.022 193.049 713.044 193.049H694.716C693.739 193.049 692.912 192.73 692.235 192.09C691.596 191.414 691.276 190.587 691.276 189.609V157.014C691.276 156.036 691.615 155.228 692.291 154.589C692.968 153.912 693.833 153.574 694.885 153.574C695.825 153.574 696.634 153.912 697.31 154.589C697.987 155.228 698.325 156.036 698.325 157.014V186.451H713.044Z" fill="url(#paint24_linear)"/>
<path d="M794.916 186.564C795.893 186.564 796.702 186.902 797.341 187.579C798.017 188.218 798.356 188.97 798.356 189.835C798.356 190.775 798.017 191.545 797.341 192.147C796.702 192.748 795.893 193.049 794.916 193.049H776.024C775.047 193.049 774.219 192.73 773.543 192.09C772.904 191.414 772.584 190.587 772.584 189.609V157.014C772.584 156.036 772.904 155.228 773.543 154.589C774.219 153.912 775.047 153.574 776.024 153.574H794.916C795.893 153.574 796.702 153.893 797.341 154.532C798.017 155.134 798.356 155.923 798.356 156.901C798.356 157.841 798.036 158.612 797.397 159.213C796.758 159.777 795.931 160.059 794.916 160.059H779.633V169.646H792.378C793.356 169.646 794.164 169.965 794.803 170.605C795.48 171.206 795.818 171.996 795.818 172.973C795.818 173.913 795.499 174.684 794.859 175.285C794.22 175.849 793.393 176.131 792.378 176.131H779.633V186.564H794.916Z" fill="url(#paint25_linear)"/>
<path d="M851.211 187.861C851.663 188.462 851.888 189.158 851.888 189.947C851.888 190.925 851.531 191.733 850.817 192.372C850.102 193.012 849.332 193.331 848.505 193.331C847.414 193.331 846.493 192.842 845.741 191.865L835.703 178.5L825.947 191.752C825.195 192.805 824.255 193.331 823.128 193.331C822.3 193.331 821.586 193.03 820.985 192.429C820.383 191.827 820.082 191.132 820.082 190.342C820.082 189.515 820.364 188.744 820.928 188.03L831.812 173.311L820.928 158.875C820.439 158.273 820.195 157.596 820.195 156.845C820.195 155.905 820.552 155.096 821.267 154.42C821.981 153.743 822.77 153.405 823.635 153.405C824.725 153.405 825.646 153.893 826.398 154.871L836.324 168.067L846.023 155.153C846.399 154.626 846.832 154.232 847.32 153.968C847.809 153.668 848.298 153.517 848.787 153.517C849.614 153.517 850.347 153.856 850.986 154.532C851.625 155.172 851.945 155.886 851.945 156.675C851.945 157.39 851.7 158.066 851.211 158.706L840.215 173.199L851.211 187.861Z" fill="url(#paint26_linear)"/>
<path d="M891.943 153.574C893.86 153.574 895.684 154.156 897.413 155.322C899.143 156.45 900.534 157.991 901.586 159.946C902.639 161.864 903.165 163.969 903.165 166.262C903.165 168.518 902.639 170.623 901.586 172.578C900.534 174.533 899.143 176.093 897.413 177.259C895.684 178.387 893.86 178.951 891.943 178.951H882.131V189.609C882.131 190.624 881.83 191.451 881.228 192.09C880.627 192.73 879.837 193.049 878.86 193.049C877.92 193.049 877.149 192.73 876.548 192.09C875.946 191.414 875.645 190.587 875.645 189.609V157.014C875.645 156.036 875.965 155.228 876.604 154.589C877.281 153.912 878.108 153.574 879.085 153.574H891.943ZM891.943 172.522C892.657 172.522 893.353 172.221 894.03 171.62C894.744 171.018 895.308 170.247 895.721 169.307C896.172 168.33 896.398 167.315 896.398 166.262C896.398 165.21 896.172 164.213 895.721 163.273C895.308 162.296 894.744 161.525 894.03 160.961C893.353 160.36 892.657 160.059 891.943 160.059H882.131V172.522H891.943Z" fill="url(#paint27_linear)"/>
<path d="M948.874 186.564C949.852 186.564 950.66 186.902 951.299 187.579C951.976 188.218 952.314 188.97 952.314 189.835C952.314 190.775 951.976 191.545 951.299 192.147C950.66 192.748 949.852 193.049 948.874 193.049H929.983C929.005 193.049 928.178 192.73 927.501 192.09C926.862 191.414 926.543 190.587 926.543 189.609V157.014C926.543 156.036 926.862 155.228 927.501 154.589C928.178 153.912 929.005 153.574 929.983 153.574H948.874C949.852 153.574 950.66 153.893 951.299 154.532C951.976 155.134 952.314 155.923 952.314 156.901C952.314 157.841 951.995 158.612 951.356 159.213C950.717 159.777 949.889 160.059 948.874 160.059H933.592V169.646H946.337C947.314 169.646 948.122 169.965 948.762 170.605C949.438 171.206 949.777 171.996 949.777 172.973C949.777 173.913 949.457 174.684 948.818 175.285C948.179 175.849 947.352 176.131 946.337 176.131H933.592V186.564H948.874Z" fill="url(#paint28_linear)"/>
<path d="M1006.69 187.523C1007.18 187.823 1007.56 188.218 1007.82 188.707C1008.12 189.196 1008.27 189.703 1008.27 190.229C1008.27 190.906 1008.05 191.526 1007.59 192.09C1007.03 192.767 1006.17 193.106 1005 193.106C1004.1 193.106 1003.27 192.899 1002.52 192.485C999.813 190.944 998.459 187.805 998.459 183.067C998.459 181.714 998.008 180.643 997.106 179.853C996.241 179.064 994.982 178.669 993.327 178.669H982.782V189.609C982.782 190.624 982.5 191.451 981.936 192.09C981.41 192.73 980.695 193.049 979.793 193.049C978.703 193.049 977.744 192.73 976.917 192.09C976.127 191.414 975.733 190.587 975.733 189.609V157.014C975.733 156.036 976.052 155.228 976.691 154.589C977.368 153.912 978.195 153.574 979.173 153.574H995.414C997.369 153.574 999.211 154.1 1000.94 155.153C1002.67 156.205 1004.04 157.653 1005.06 159.495C1006.11 161.337 1006.64 163.405 1006.64 165.698C1006.64 167.578 1006.13 169.42 1005.11 171.225C1004.1 172.992 1002.78 174.402 1001.17 175.454C1003.53 177.109 1004.83 179.327 1005.06 182.109C1005.17 182.71 1005.23 183.293 1005.23 183.857C1005.38 185.022 1005.53 185.868 1005.68 186.395C1005.83 186.883 1006.17 187.259 1006.69 187.523ZM995.132 172.86C995.809 172.86 996.467 172.541 997.106 171.902C997.745 171.262 998.271 170.417 998.685 169.364C999.098 168.274 999.305 167.108 999.305 165.867C999.305 164.815 999.098 163.856 998.685 162.991C998.271 162.089 997.745 161.375 997.106 160.848C996.467 160.322 995.809 160.059 995.132 160.059H982.782V172.86H995.132Z" fill="url(#paint29_linear)"/>
<path d="M1038.42 189.609C1038.42 190.587 1038.06 191.414 1037.34 192.09C1036.63 192.73 1035.8 193.049 1034.86 193.049C1033.85 193.049 1033 192.73 1032.32 192.09C1031.69 191.414 1031.37 190.587 1031.37 189.609V157.014C1031.37 156.036 1031.7 155.228 1032.38 154.589C1033.06 153.912 1033.92 153.574 1034.98 153.574C1035.92 153.574 1036.72 153.912 1037.4 154.589C1038.08 155.228 1038.42 156.036 1038.42 157.014V189.609Z" fill="url(#paint30_linear)"/>
<path d="M1098.05 153.517C1098.99 153.517 1099.79 153.856 1100.47 154.532C1101.18 155.172 1101.54 155.98 1101.54 156.957V189.609C1101.54 190.587 1101.22 191.414 1100.58 192.09C1099.94 192.73 1099.1 193.049 1098.05 193.049C1096.99 193.049 1096.13 192.73 1095.45 192.09C1094.81 191.451 1094.49 190.624 1094.49 189.609V166.883L1085.19 181.094C1084.81 181.545 1084.38 181.921 1083.89 182.222C1083.4 182.485 1082.89 182.598 1082.37 182.56C1081.88 182.598 1081.39 182.485 1080.9 182.222C1080.41 181.921 1079.98 181.545 1079.6 181.094L1070.3 166.375V189.609C1070.3 190.624 1070 191.451 1069.4 192.09C1068.8 192.73 1068.01 193.049 1067.03 193.049C1066.09 193.049 1065.32 192.73 1064.72 192.09C1064.12 191.414 1063.81 190.587 1063.81 189.609V156.957C1063.81 156.017 1064.15 155.209 1064.83 154.532C1065.54 153.856 1066.39 153.517 1067.37 153.517C1067.93 153.517 1068.49 153.668 1069.06 153.968C1069.62 154.232 1070.06 154.589 1070.36 155.04L1082.65 173.932L1095.28 155.04C1095.58 154.589 1095.98 154.232 1096.47 153.968C1096.99 153.668 1097.52 153.517 1098.05 153.517Z" fill="url(#paint31_linear)"/>
<path d="M1149.27 186.564C1150.25 186.564 1151.06 186.902 1151.69 187.579C1152.37 188.218 1152.71 188.97 1152.71 189.835C1152.71 190.775 1152.37 191.545 1151.69 192.147C1151.06 192.748 1150.25 193.049 1149.27 193.049H1130.38C1129.4 193.049 1128.57 192.73 1127.9 192.09C1127.26 191.414 1126.94 190.587 1126.94 189.609V157.014C1126.94 156.036 1127.26 155.228 1127.9 154.589C1128.57 153.912 1129.4 153.574 1130.38 153.574H1149.27C1150.25 153.574 1151.06 153.893 1151.69 154.532C1152.37 155.134 1152.71 155.923 1152.71 156.901C1152.71 157.841 1152.39 158.612 1151.75 159.213C1151.11 159.777 1150.28 160.059 1149.27 160.059H1133.99V169.646H1146.73C1147.71 169.646 1148.52 169.965 1149.16 170.605C1149.83 171.206 1150.17 171.996 1150.17 172.973C1150.17 173.913 1149.85 174.684 1149.21 175.285C1148.57 175.849 1147.75 176.131 1146.73 176.131H1133.99V186.564H1149.27Z" fill="url(#paint32_linear)"/>
<path d="M1206.07 153.574C1206.97 153.574 1207.71 153.874 1208.27 154.476C1208.84 155.078 1209.12 155.829 1209.12 156.732V189.609C1209.12 190.587 1208.78 191.414 1208.1 192.09C1207.46 192.73 1206.66 193.049 1205.68 193.049C1205.15 193.049 1204.63 192.974 1204.1 192.824C1203.61 192.636 1203.25 192.391 1203.03 192.09L1182.33 165.811V189.891C1182.33 190.793 1182.03 191.545 1181.43 192.147C1180.86 192.748 1180.11 193.049 1179.17 193.049C1178.27 193.049 1177.54 192.748 1176.97 192.147C1176.41 191.545 1176.13 190.793 1176.13 189.891V157.014C1176.13 156.036 1176.45 155.228 1177.09 154.589C1177.76 153.912 1178.59 153.574 1179.57 153.574C1180.13 153.574 1180.68 153.686 1181.2 153.912C1181.77 154.138 1182.18 154.438 1182.44 154.814L1202.97 180.981V156.732C1202.97 155.829 1203.25 155.078 1203.82 154.476C1204.42 153.874 1205.17 153.574 1206.07 153.574Z" fill="url(#paint33_linear)"/>
<path d="M1260.46 153.574C1261.47 153.574 1262.3 153.874 1262.94 154.476C1263.58 155.078 1263.9 155.867 1263.9 156.845C1263.9 157.822 1263.58 158.612 1262.94 159.213C1262.3 159.777 1261.47 160.059 1260.46 160.059H1251.6V189.609C1251.6 190.587 1251.24 191.414 1250.53 192.09C1249.82 192.73 1248.93 193.049 1247.88 193.049C1246.83 193.049 1245.96 192.73 1245.29 192.09C1244.61 191.414 1244.27 190.587 1244.27 189.609V160.059H1235.42C1234.4 160.059 1233.57 159.758 1232.94 159.157C1232.3 158.555 1231.98 157.766 1231.98 156.788C1231.98 155.848 1232.3 155.078 1232.94 154.476C1233.61 153.874 1234.44 153.574 1235.42 153.574H1260.46Z" fill="url(#paint34_linear)"/>
<defs>
<linearGradient id="paint0_linear" x1="6.86917" y1="11.3416" x2="1195.31" y2="713.92" gradientUnits="userSpaceOnUse">
<stop stop-color="#2A14FF"/>
<stop offset="1" stop-color="#C316DF"/>
</linearGradient>
<linearGradient id="paint1_linear" x1="6.86917" y1="11.3416" x2="1195.31" y2="713.92" gradientUnits="userSpaceOnUse">
<stop stop-color="#2A14FF"/>
<stop offset="1" stop-color="#C316DF"/>
</linearGradient>
<linearGradient id="paint2_linear" x1="6.86917" y1="11.3416" x2="1195.31" y2="713.92" gradientUnits="userSpaceOnUse">
<stop stop-color="#2A14FF"/>
<stop offset="1" stop-color="#C316DF"/>
</linearGradient>
<linearGradient id="paint3_linear" x1="6.86917" y1="11.3416" x2="1195.31" y2="713.92" gradientUnits="userSpaceOnUse">
<stop stop-color="#2A14FF"/>
<stop offset="1" stop-color="#C316DF"/>
</linearGradient>
<linearGradient id="paint4_linear" x1="6.86917" y1="11.3416" x2="1195.31" y2="713.92" gradientUnits="userSpaceOnUse">
<stop stop-color="#2A14FF"/>
<stop offset="1" stop-color="#C316DF"/>
</linearGradient>
<linearGradient id="paint5_linear" x1="6.86917" y1="11.3416" x2="1195.31" y2="713.92" gradientUnits="userSpaceOnUse">
<stop stop-color="#2A14FF"/>
<stop offset="1" stop-color="#C316DF"/>
</linearGradient>
<linearGradient id="paint6_linear" x1="6.86917" y1="11.3416" x2="1195.31" y2="713.92" gradientUnits="userSpaceOnUse">
<stop stop-color="#2A14FF"/>
<stop offset="1" stop-color="#C316DF"/>
</linearGradient>
<linearGradient id="paint7_linear" x1="6.86917" y1="11.3416" x2="1195.31" y2="713.92" gradientUnits="userSpaceOnUse">
<stop stop-color="#2A14FF"/>
<stop offset="1" stop-color="#C316DF"/>
</linearGradient>
<linearGradient id="paint8_linear" x1="6.86917" y1="11.3416" x2="1195.31" y2="713.92" gradientUnits="userSpaceOnUse">
<stop stop-color="#2A14FF"/>
<stop offset="1" stop-color="#C316DF"/>
</linearGradient>
<linearGradient id="paint9_linear" x1="6.86917" y1="11.3416" x2="1195.31" y2="713.92" gradientUnits="userSpaceOnUse">
<stop stop-color="#2A14FF"/>
<stop offset="1" stop-color="#C316DF"/>
</linearGradient>
<linearGradient id="paint10_linear" x1="6.86917" y1="11.3416" x2="1195.31" y2="713.92" gradientUnits="userSpaceOnUse">
<stop stop-color="#2A14FF"/>
<stop offset="1" stop-color="#C316DF"/>
</linearGradient>
<linearGradient id="paint11_linear" x1="6.86917" y1="11.3416" x2="1195.31" y2="713.92" gradientUnits="userSpaceOnUse">
<stop stop-color="#2A14FF"/>
<stop offset="1" stop-color="#C316DF"/>
</linearGradient>
<linearGradient id="paint12_linear" x1="6.86917" y1="11.3416" x2="1195.31" y2="713.92" gradientUnits="userSpaceOnUse">
<stop stop-color="#2A14FF"/>
<stop offset="1" stop-color="#C316DF"/>
</linearGradient>
<linearGradient id="paint13_linear" x1="6.86917" y1="11.3416" x2="1195.31" y2="713.92" gradientUnits="userSpaceOnUse">
<stop stop-color="#2A14FF"/>
<stop offset="1" stop-color="#C316DF"/>
</linearGradient>
<linearGradient id="paint14_linear" x1="6.86917" y1="11.3416" x2="1195.31" y2="713.92" gradientUnits="userSpaceOnUse">
<stop stop-color="#2A14FF"/>
<stop offset="1" stop-color="#C316DF"/>
</linearGradient>
<linearGradient id="paint15_linear" x1="6.86917" y1="11.3416" x2="1195.31" y2="713.92" gradientUnits="userSpaceOnUse">
<stop stop-color="#2A14FF"/>
<stop offset="1" stop-color="#C316DF"/>
</linearGradient>
<linearGradient id="paint16_linear" x1="6.86917" y1="11.3416" x2="1195.31" y2="713.92" gradientUnits="userSpaceOnUse">
<stop stop-color="#2A14FF"/>
<stop offset="1" stop-color="#C316DF"/>
</linearGradient>
<linearGradient id="paint17_linear" x1="294.476" y1="154.839" x2="855.702" y2="653.251" gradientUnits="userSpaceOnUse">
<stop stop-color="#2A14FF"/>
<stop offset="1" stop-color="#C316DF"/>
</linearGradient>
<linearGradient id="paint18_linear" x1="294.476" y1="154.839" x2="855.702" y2="653.251" gradientUnits="userSpaceOnUse">
<stop stop-color="#2A14FF"/>
<stop offset="1" stop-color="#C316DF"/>
</linearGradient>
<linearGradient id="paint19_linear" x1="294.476" y1="154.839" x2="855.702" y2="653.251" gradientUnits="userSpaceOnUse">
<stop stop-color="#2A14FF"/>
<stop offset="1" stop-color="#C316DF"/>
</linearGradient>
<linearGradient id="paint20_linear" x1="294.476" y1="154.839" x2="855.702" y2="653.251" gradientUnits="userSpaceOnUse">
<stop stop-color="#2A14FF"/>
<stop offset="1" stop-color="#C316DF"/>
</linearGradient>
<linearGradient id="paint21_linear" x1="294.476" y1="154.839" x2="855.702" y2="653.251" gradientUnits="userSpaceOnUse">
<stop stop-color="#2A14FF"/>
<stop offset="1" stop-color="#C316DF"/>
</linearGradient>
<linearGradient id="paint22_linear" x1="294.476" y1="154.839" x2="855.702" y2="653.251" gradientUnits="userSpaceOnUse">
<stop stop-color="#2A14FF"/>
<stop offset="1" stop-color="#C316DF"/>
</linearGradient>
<linearGradient id="paint23_linear" x1="294.476" y1="154.839" x2="855.702" y2="653.251" gradientUnits="userSpaceOnUse">
<stop stop-color="#2A14FF"/>
<stop offset="1" stop-color="#C316DF"/>
</linearGradient>
<linearGradient id="paint24_linear" x1="294.476" y1="154.839" x2="855.702" y2="653.251" gradientUnits="userSpaceOnUse">
<stop stop-color="#2A14FF"/>
<stop offset="1" stop-color="#C316DF"/>
</linearGradient>
<linearGradient id="paint25_linear" x1="294.476" y1="154.839" x2="855.702" y2="653.251" gradientUnits="userSpaceOnUse">
<stop stop-color="#2A14FF"/>
<stop offset="1" stop-color="#C316DF"/>
</linearGradient>
<linearGradient id="paint26_linear" x1="294.476" y1="154.839" x2="855.702" y2="653.251" gradientUnits="userSpaceOnUse">
<stop stop-color="#2A14FF"/>
<stop offset="1" stop-color="#C316DF"/>
</linearGradient>
<linearGradient id="paint27_linear" x1="294.476" y1="154.839" x2="855.702" y2="653.251" gradientUnits="userSpaceOnUse">
<stop stop-color="#2A14FF"/>
<stop offset="1" stop-color="#C316DF"/>
</linearGradient>
<linearGradient id="paint28_linear" x1="294.476" y1="154.839" x2="855.702" y2="653.251" gradientUnits="userSpaceOnUse">
<stop stop-color="#2A14FF"/>
<stop offset="1" stop-color="#C316DF"/>
</linearGradient>
<linearGradient id="paint29_linear" x1="294.476" y1="154.839" x2="855.702" y2="653.251" gradientUnits="userSpaceOnUse">
<stop stop-color="#2A14FF"/>
<stop offset="1" stop-color="#C316DF"/>
</linearGradient>
<linearGradient id="paint30_linear" x1="294.476" y1="154.839" x2="855.702" y2="653.251" gradientUnits="userSpaceOnUse">
<stop stop-color="#2A14FF"/>
<stop offset="1" stop-color="#C316DF"/>
</linearGradient>
<linearGradient id="paint31_linear" x1="294.476" y1="154.839" x2="855.702" y2="653.251" gradientUnits="userSpaceOnUse">
<stop stop-color="#2A14FF"/>
<stop offset="1" stop-color="#C316DF"/>
</linearGradient>
<linearGradient id="paint32_linear" x1="294.476" y1="154.839" x2="855.702" y2="653.251" gradientUnits="userSpaceOnUse">
<stop stop-color="#2A14FF"/>
<stop offset="1" stop-color="#C316DF"/>
</linearGradient>
<linearGradient id="paint33_linear" x1="294.476" y1="154.839" x2="855.702" y2="653.251" gradientUnits="userSpaceOnUse">
<stop stop-color="#2A14FF"/>
<stop offset="1" stop-color="#C316DF"/>
</linearGradient>
<linearGradient id="paint34_linear" x1="294.476" y1="154.839" x2="855.702" y2="653.251" gradientUnits="userSpaceOnUse">
<stop stop-color="#2A14FF"/>
<stop offset="1" stop-color="#C316DF"/>
</linearGradient>
</defs>
</svg>
