<svg width="75" height="75" viewBox="0 0 75 75" fill="none" xmlns="http://www.w3.org/2000/svg">
<circle cx="37.5" cy="37.5" r="27.5" fill="url(#paint0_linear)"/>
<path d="M50.4583 24.3766C46.9978 20.9078 42.3893 19 37.4917 19C27.3828 19 19.1569 27.2259 19.1569 37.3348C19.1569 40.5641 19.9993 43.719 21.6016 46.5022L19 56L28.7208 53.448C31.3967 54.9098 34.4112 55.6779 37.4835 55.6779H37.4917C47.5924 55.6779 56 47.452 56 37.3431C56 32.4455 53.9187 27.8453 50.4583 24.3766V24.3766ZM37.4917 52.5891C34.7498 52.5891 32.0656 51.854 29.7283 50.4665L29.175 50.1362L23.4103 51.6475L24.9464 46.0232L24.583 45.4451C23.0551 43.017 22.254 40.2172 22.254 37.3348C22.254 28.9355 29.0924 22.0971 37.5 22.0971C41.5717 22.0971 45.3955 23.6828 48.2696 26.5652C51.1437 29.4475 52.9112 33.2714 52.9029 37.3431C52.9029 45.7507 45.8911 52.5891 37.4917 52.5891V52.5891ZM45.8498 41.1752C45.3955 40.944 43.1408 39.8373 42.7196 39.6886C42.2984 39.5317 41.9929 39.4574 41.6873 39.9199C41.3817 40.3824 40.5062 41.4065 40.2337 41.7203C39.9694 42.0259 39.6969 42.0672 39.2426 41.8359C36.5502 40.4897 34.7828 39.4326 33.0071 36.385C32.5364 35.5757 33.4779 35.6335 34.3533 33.8826C34.502 33.577 34.4277 33.3127 34.3121 33.0815C34.1964 32.8502 33.2797 30.5955 32.8998 29.6788C32.5281 28.7868 32.1482 28.9107 31.8674 28.8942C31.6031 28.8777 31.2975 28.8777 30.992 28.8777C30.6864 28.8777 30.1908 28.9933 29.7696 29.4475C29.3484 29.91 28.1674 31.0167 28.1674 33.2714C28.1674 35.5261 29.8109 37.7065 30.0339 38.0121C30.2652 38.3176 33.2632 42.9426 37.8634 44.933C40.7705 46.1884 41.9103 46.2958 43.3638 46.081C44.2475 45.9489 46.0728 44.9743 46.4527 43.9007C46.8326 42.827 46.8326 41.9103 46.717 41.7203C46.6096 41.5138 46.304 41.3982 45.8498 41.1752Z" fill="white"/>
<circle cx="37.5" cy="37.5" r="36.5" stroke="url(#paint1_linear)" stroke-width="2"/>
<defs>
<linearGradient id="paint0_linear" x1="10" y1="12.4782" x2="66.8749" y2="14.5937" gradientUnits="userSpaceOnUse">
<stop stop-color="#2A14FF"/>
<stop offset="1" stop-color="#C316DF"/>
</linearGradient>
<linearGradient id="paint1_linear" x1="1.38453e-06" y1="3.37934" x2="77.5567" y2="6.26415" gradientUnits="userSpaceOnUse">
<stop stop-color="#2A14FF"/>
<stop offset="1" stop-color="#C316DF"/>
</linearGradient>
</defs>
</svg>
