<svg width="75" height="75" viewBox="0 0 75 75" fill="none" xmlns="http://www.w3.org/2000/svg">
<circle cx="37.5" cy="37.5" r="27.5" fill="url(#paint0_linear)"/>
<path d="M38.004 28.0137C32.8962 28.0137 28.7761 32.2491 28.7761 37.5C28.7761 42.7509 32.8962 46.9863 38.004 46.9863C43.1119 46.9863 47.2319 42.7509 47.2319 37.5C47.2319 32.2491 43.1119 28.0137 38.004 28.0137ZM38.004 43.6674C34.7032 43.6674 32.0047 40.9015 32.0047 37.5C32.0047 34.0985 34.6951 31.3326 38.004 31.3326C41.3129 31.3326 44.0033 34.0985 44.0033 37.5C44.0033 40.9015 41.3049 43.6674 38.004 43.6674V43.6674ZM49.7617 27.6256C49.7617 28.8558 48.798 29.8383 47.6094 29.8383C46.4127 29.8383 45.457 28.8475 45.457 27.6256C45.457 26.4037 46.4207 25.413 47.6094 25.413C48.798 25.413 49.7617 26.4037 49.7617 27.6256ZM55.8735 29.8713C55.737 26.9073 55.0784 24.2819 52.9662 22.1188C50.862 19.9557 48.3081 19.2786 45.4249 19.13C42.4533 18.9567 33.5467 18.9567 30.5751 19.13C27.6999 19.2704 25.146 19.9474 23.0338 22.1105C20.9216 24.2736 20.2711 26.8991 20.1265 29.863C19.9578 32.9178 19.9578 42.0739 20.1265 45.1287C20.263 48.0927 20.9216 50.7181 23.0338 52.8812C25.146 55.0443 27.6919 55.7214 30.5751 55.87C33.5467 56.0433 42.4533 56.0433 45.4249 55.87C48.3081 55.7296 50.862 55.0526 52.9662 52.8812C55.0704 50.7181 55.7289 48.0927 55.8735 45.1287C56.0422 42.0739 56.0422 32.9261 55.8735 29.8713V29.8713ZM52.0346 48.4064C51.4081 50.0246 50.1954 51.2713 48.6133 51.9235C46.2441 52.8895 40.6222 52.6666 38.004 52.6666C35.3858 52.6666 29.7559 52.8812 27.3948 51.9235C25.8206 51.2795 24.6079 50.0329 23.9735 48.4064C23.0338 45.9708 23.2506 40.1915 23.2506 37.5C23.2506 34.8085 23.0418 29.0209 23.9735 26.5936C24.5999 24.9754 25.8126 23.7287 27.3948 23.0765C29.764 22.1105 35.3858 22.3334 38.004 22.3334C40.6222 22.3334 46.2521 22.1188 48.6133 23.0765C50.1874 23.7205 51.4001 24.9671 52.0346 26.5936C52.9742 29.0292 52.7574 34.8085 52.7574 37.5C52.7574 40.1915 52.9742 45.9791 52.0346 48.4064Z" fill="white"/>
<circle cx="37.5" cy="37.5" r="36.5" stroke="url(#paint1_linear)" stroke-width="2"/>
<defs>
<linearGradient id="paint0_linear" x1="10" y1="12.4782" x2="66.8749" y2="14.5937" gradientUnits="userSpaceOnUse">
<stop stop-color="#2A14FF"/>
<stop offset="1" stop-color="#C316DF"/>
</linearGradient>
<linearGradient id="paint1_linear" x1="1.38453e-06" y1="3.37934" x2="77.5567" y2="6.26415" gradientUnits="userSpaceOnUse">
<stop stop-color="#2A14FF"/>
<stop offset="1" stop-color="#C316DF"/>
</linearGradient>
</defs>
</svg>
